<svg xmlns="http://www.w3.org/2000/svg" width="348" height="113pt" fill="#fff" viewBox="0 0 261 113"><path d="M252.395 52.828h-26.172c-4.735 0-8.594 3.863-8.594 8.594v22.543c0 4.734 3.86 8.594 8.594 8.594h26.172c4.734 0 8.593-3.86 8.593-8.594V61.422c0-4.73-3.86-8.594-8.593-8.594m-96.153-29.64h-3.219v-.563c.883.016 1.442-.172 1.051-.95-.597-1.167 1.98-1.105 2.36-.85.675.445.23 1.738-.192 2.363m-4.402.78h3.902c-.433.657-1.648 2.868-2.433 2.872-.317-.442-1.356-1.875-1.47-2.871m74.52 37.458h25.894v22.539h-25.895Zm-53.137 0h36.03v-.004c0-4.73-3.858-8.594-8.593-8.594h-27.664c-4.73 0-8.594 3.863-8.594 8.594v22.543c0 4.734 3.864 8.594 8.594 8.594h27.664c4.735 0 8.594-3.86 8.594-8.594V69.09h-29.242a6.65 6.65 0 0 0 6.64 6.64h14.403v8.235h-27.832Zm-112.52 0h34.399v-.004c0-4.73-3.864-8.594-8.598-8.594H59.883c-4.735 0-8.594 3.863-8.594 8.594v6.973c0 4.734 3.86 8.597 8.594 8.597h26.695v6.973H51.29c0 4.734 3.86 8.594 8.594 8.594h27.512c4.734 0 8.597-3.86 8.597-8.594v-6.973c0-4.734-3.863-8.597-8.597-8.597H60.703Zm-49.527 0h32.472v-.004c0-4.73-3.863-8.594-8.597-8.594H8.883c-4.735 0-8.594 3.863-8.594 8.594v22.543c0 4.734 3.86 8.594 8.594 8.594H35.05c4.734 0 8.597-3.86 8.597-8.594H11.176Zm153.34-42.153a2.3 2.3 0 0 1-.645.223c-1.226 1.738-.488 1.535-2.652 2.984.004 2.91.09 3.227.77 5.805a.21.21 0 0 1-.024.176.21.21 0 0 1-.145.102c-.523.113-1.277.304-1.71.386.011.094.218 1.742-.016 2.969-.364 1.926-4.95 6.145-6.047 6.36-1.516.296-3.207-1.04-5.856-2.204-.726-.32-3.175-1.93-4.457-2.355-1.062-.356-2.129 2.234-.808 2.926.613.324 1.594.761 1.902 1.562.918 2.379-.144 11.559-2.035 13.406-.898-.008-1.652-.832-2.32-.617-1.192.652-.438 4.293 0 4.926 7.328 7.539 6.457 13.121 9.566 17.289 1.422 0 .488 1.504 1.566 3.27.286.906-.085 2.445-.238 3.03v2.274q-.116.356-.238.711v1.988c-.219.97-.457 2.27-.66 3.176-.438 1.906 1.242 3.39.234 5.207 0 1.117.004.895-.664 1.801 0 1.734-.406 5.39 0 6.68.285.898 3.543 4.703 4.36 5.07 1.968.875 4.87.687 3.93 3.789-5.763 1.77-9.442-1-12.517-1.043l-.14.527c-1.969.004-3.54-.48-3.969-.62-.004-.532.637-4.61.852-5.258q.331-.522.664-1.043c.238-.696-.242-5.786-.285-7.153-1.227-.902-1.465-3.652-1.465-5.164-.356-1.168-.356-2.555-.43-4.074-.031-.711-.457-1.758-.187-2.652.183-.61.87-.875 1.043-1.375v-1.704c.324-1.793.222-2.62-.856-3.695-2.695.035-3.066.164-4.547-2.133-.46-.71-4.23-6.66-4.594-6.82-3.136-1.367-2.511-.836-3.882-3.266-.059 0-.895.278-1.63 1.383-1.124 1.676-3.109 7.125-3.675 9.035-.316 1.067 0 2.246-.477 3.13-.343.636-1.46.843-1.703 1.277-1.101 1.98-.277 1.824-2.37 3.222-.376.485-.388 1.211-.661 1.797-.16.223-.316.445-.477.664-.351.758.375 2.133.239 2.606-.364 1.242-.84 2.492-1.325 3.648-.96 2.277-.835 5.3-1.804 6.7-.485.702-1.66.015-2.555.593-.05.488-1.473 3.738-1.754 4.645v5.16c.27.87 1.004 1.699.785 2.8-.234 1.172-4.312 1.157-6.527.836-1.48-.214-1.926-1.304-1.902-2.57.03-1.488 3.043-11.176 2.86-11.816-2.286-2.578.612-5.227 1.472-7.63.414-1.167.16-2.8.613-3.882l2.414-4.406c1.473-1.387.816-1.457 1.613-2.7.692-1.078 1.528-1.804 1.043-3.456-.976-3.325 1.137-8.036 1.278-11.512-.375-.395-1.649-.27-1.809-1.328-.32-2.16.82-5.98 1.523-6.344.313-.16.672-.02.95-.191 0-1.618-1.61-10.625-.387-11.083.754-.28 2.484-.43 2.82-.582-.02-.382-.285-1.203-.601-1.246-.54-.074-1.64-.28-2.52-.484-2.691-.621-.199-11.238-.168-11.281.742-.98 4.18.34 4.598-1.328 1.148-1.465-.887-7.106 3.035-14.051 1.324-2.348 3.86-4.715 6.816-3.711.993.336.391 1.762 2.133.238.043-.89-.37-1.637-.617-2.37-2.894-8.638 6.914-13.321 13.785-8.384.77.313 1.223.465 1.797.899.379 1.957 2.32 5.437.383 7.722-.797.168-1.766.614-2.371 1.043-.012.79.094 1.516.238 1.989.129.425.375.593-.262.851-.082.031-.046.297-.004.399 1.606.312 3.313-.297 4.387-.73h1.278v-1.614h.613V11.41h.61v2.184h1.597v.691h23.676v1.23h1.047v-4.5h.882v3.66h2.016v2.09h6.27v-.62h1.042v.27h2.961v1.741h-2.96v.274h-1.043v-.621h-6.27v.62h-2.762v-.421h-1.183v1.265z" style="stroke:none"/></svg>