<svg xmlns="http://www.w3.org/2000/svg" width="1108.293" height="265.297"><defs><clipPath id="a" clipPathUnits="userSpaceOnUse"><path d="M0 198.973h831.22V0H0Z"/></clipPath></defs><g clip-path="url(#a)" transform="matrix(1.33333 0 0 -1.33333 0 265.297)"><path d="M83.537 124.163H71.111v11.305h12.426ZM63.735 63.635l-.241 10.101c1.042-.08 1.042-.08 1.844-.08 3.929 0 6.013 2.646 6.013 7.296v38.16h11.705V79.349c0-9.702-6.414-15.874-16.355-15.874-.802 0-2.966.16-2.966.16M94.281 119.112h11.785V78.707H94.281Zm12.185 5.051H94.04v11.305h12.426z" style="fill:#1d34fe;fill-opacity:1;fill-rule:nonzero;stroke:none"/><path d="M0 0h11.785v-21.807c2.485 3.768 6.894 6.093 12.266 6.093 9.139 0 15.072-5.772 15.072-14.751v-26.296H27.418v23.249c0 4.49-2.806 7.376-7.135 7.376-5.612 0-8.498-4.65-8.498-12.987v-17.638H0z" style="fill:#1d34fe;fill-opacity:1;fill-rule:nonzero;stroke:none" transform="translate(117.61 135.468)"/><path d="M0 0c0 6.413-3.848 10.822-9.54 10.822-5.773 0-9.621-4.409-9.621-10.822 0-6.414 3.848-10.823 9.621-10.823C-3.848-10.823 0-6.414 0 0m-30.865 0c0 12.025 8.819 20.844 21.325 20.844 12.346 0 21.325-8.819 21.325-20.844S2.806-20.845-9.54-20.845c-12.506 0-21.325 8.82-21.325 20.845" style="fill:#1d34fe;fill-opacity:1;fill-rule:nonzero;stroke:none" transform="translate(196.14 98.91)"/><path d="M0 0h11.785v-5.451C14.11-1.844 17.797.642 23.169.642c6.253 0 10.182-2.566 12.185-7.215C37.519-2.726 42.41.642 48.983.642c8.739 0 14.511-5.853 14.511-13.549v-42.731H51.79v39.284c0 4.409-2.406 7.134-6.575 7.134-4.89 0-7.696-4.008-7.696-10.502v-35.916H25.895v39.284c0 4.409-2.405 7.134-6.494 7.134-4.81 0-7.616-4.088-7.616-10.502v-35.916H0z" style="fill:#fb5271;fill-opacity:1;fill-rule:nonzero;stroke:none" transform="translate(217.388 119.112)"/><path d="M0 0c0 6.413-3.848 10.822-9.54 10.822-5.773 0-9.621-4.409-9.621-10.822 0-6.414 3.848-10.823 9.621-10.823C-3.848-10.823 0-6.414 0 0m-30.865 0c0 12.025 8.819 20.844 21.325 20.844 12.346 0 21.325-8.819 21.325-20.844S2.806-20.845-9.54-20.845c-12.506 0-21.325 8.82-21.325 20.845" style="fill:#1d34fe;fill-opacity:1;fill-rule:nonzero;stroke:none" transform="translate(321.291 98.91)"/><path d="M0 0c-5.291 0-10.342-4.009-10.342-15.473v-14.59h-11.784v40.405h11.784V3.367c1.844 4.329 7.055 7.616 11.865 7.616 1.363 0 3.207-.24 4.33-.641L5.131-.962C3.768-.32 1.844 0 0 0" style="fill:#1d34fe;fill-opacity:1;fill-rule:nonzero;stroke:none" transform="translate(364.664 108.77)"/><path d="M0 0v.641l-7.536-.882c-4.008-.401-6.013-2.405-6.013-4.73 0-2.245 1.764-4.008 5.051-4.008C-3.207-8.979-.08-4.73 0 0m11.384 7.215v-23.971H0v5.131c-2.325-3.527-6.895-5.772-11.384-5.772-7.857 0-13.388 5.291-13.388 12.025 0 8.018 5.852 12.347 17.477 13.549L0 8.898v.241c0 4.008-2.726 6.414-7.055 6.414-3.848 0-6.654-2.325-7.055-6.254l-10.262 1.925c1.283 7.936 8.659 13.067 17.317 13.067 10.983 0 18.439-5.692 18.439-17.076" style="fill:#1d34fe;fill-opacity:1;fill-rule:nonzero;stroke:none" transform="translate(401.262 95.463)"/><path d="M0 0h11.784l8.178-26.776L28.138 0h11.865l-14.67-40.405H14.671Z" style="fill:#1d34fe;fill-opacity:1;fill-rule:nonzero;stroke:none" transform="translate(419.26 119.112)"/><path d="m0 0 9.459 3.688c.963-3.768 4.09-6.894 8.578-6.894 3.127 0 5.211 1.522 5.211 3.768 0 6.333-21.404 2.084-21.404 17.396 0 6.334 5.531 11.625 14.429 11.625 8.258 0 15.073-4.009 16.916-9.861l-9.459-3.928c-1.043 3.687-4.33 5.371-7.054 5.371-2.647 0-4.49-1.122-4.49-2.886 0-6.414 21.726-1.123 21.726-17.477 0-6.975-6.414-12.907-15.875-12.907C8.178-12.105 2.084-6.093 0 0" style="fill:#1d34fe;fill-opacity:1;fill-rule:nonzero;stroke:none" transform="translate(463.912 90.17)"/><path d="m0 0-4.408-4.41v-12.266h-11.865v56.761h11.865V10.502L9.061 23.729h14.75L7.857 7.856l17.157-24.532h-14.03z" style="fill:#1d34fe;fill-opacity:1;fill-rule:nonzero;stroke:none" transform="translate(524.158 95.383)"/><path d="M0 0h-8.258l4.651 11.866H9.781Zm18.52-4.489L-2.807-59.485h-12.025l6.414 16.594-15.553 38.402h12.746l8.661-23.409L6.494-4.489z" style="fill:#1d34fe;fill-opacity:1;fill-rule:nonzero;stroke:none" transform="translate(575.431 123.602)"/><path d="m0 0-4.41-4.41v-12.266h-11.865v56.761H-4.41V10.502L9.059 23.729h14.752L7.857 7.856l17.157-24.532H10.982Z" style="fill:#1d34fe;fill-opacity:1;fill-rule:nonzero;stroke:none" transform="translate(643.25 95.383)"/><path d="M0 0c-5.291 0-10.342-4.009-10.342-15.473v-14.59h-11.785v40.405h11.785V3.367c1.844 4.329 7.055 7.616 11.865 7.616 1.364 0 3.207-.24 4.331-.641L5.131-.962C3.77-.32 1.844 0 0 0" style="fill:#1d34fe;fill-opacity:1;fill-rule:nonzero;stroke:none" transform="translate(695.767 108.77)"/><path d="M0 0v.641l-7.535-.882c-4.008-.401-6.014-2.405-6.014-4.73 0-2.245 1.764-4.008 5.051-4.008C-3.207-8.979-.08-4.73 0 0m11.385 7.215v-23.971H0v5.131c-2.324-3.527-6.895-5.772-11.383-5.772-7.857 0-13.388 5.291-13.388 12.025 0 8.018 5.851 12.347 17.476 13.549L0 8.898v.241c0 4.008-2.725 6.414-7.055 6.414-3.847 0-6.654-2.325-7.054-6.254l-10.262 1.925c1.283 7.936 8.658 13.067 17.316 13.067 10.985 0 18.44-5.692 18.44-17.076" style="fill:#1d34fe;fill-opacity:1;fill-rule:nonzero;stroke:none" transform="translate(730.365 95.463)"/><path d="M768.207 124.163h-12.426v11.305h12.426zm-19.803-60.528-.24 10.101c1.043-.08 1.043-.08 1.843-.08 3.93 0 6.014 2.646 6.014 7.296v38.16h11.705V79.349c0-9.702-6.414-15.874-16.355-15.874-.801 0-2.967.16-2.967.16" style="fill:#1d34fe;fill-opacity:1;fill-rule:nonzero;stroke:none"/></g></svg>