<svg xmlns="http://www.w3.org/2000/svg" xml:space="preserve" style="fill-rule:evenodd;clip-rule:evenodd;stroke-linecap:round;stroke-linejoin:round;stroke-miterlimit:1.5" viewBox="0 0 8268 3544"><path d="m1258.39 404.593 6.08 2772.117c1890.65 356.4 3805.57 365 5744.85 24.32V410.672c-1916.97-289.308-3833.95-300.375-5750.93-6.079" style="fill:#565656;stroke:#565656;stroke-width:1px"/><path d="m1258.39 404.593 6.08 2772.117c1890.65 356.4 3805.57 365 5744.85 24.32V410.672c-1916.97-289.308-3833.95-300.375-5750.93-6.079" style="fill:url(#a);stroke:#fff;stroke-width:1.02px" transform="matrix(.9852 0 0 .97763 61.178 46.776)"/><path d="m1355.66 2258.75 6.08 638.32c2016.13 136.29 3877.09 134.01 5552.81 8.65l2.42-629.85c-1805.26 102.81-3674.95 92.52-5561.31-17.12" style="fill:#787878;stroke:#787878;stroke-width:1.02px" transform="matrix(.9989 0 0 .96625 1.483 76.036)"/><path d="m1361.74 2878.83-.02-239.1c1833.17 125.91 3681.16 99.22 5546.76 7.86l-2.93 249.54c-1894.72 302.85-3746.35 304.98-5543.81-18.3" style="fill:#5a5a5a;stroke:#5a5a5a;stroke-width:1.01px" transform="matrix(1 0 0 .97468 0 300.043)"/><path d="m5111.17 325.517.81 1908.423c645.84-7.31 1253.28-25.29 1803.5-59.16l4.86-1674.182c-885.22-129.613-1449.86-178.274-1809.17-175.081" style="fill:none;stroke:#787878;stroke-width:1px"/><path d="M5117.1 321.081c562.99 27.909 1164.76 91.613 1796.81 183.267l-1.99 1669.322c-564.08 36.99-1168.97 51.33-1796.81 61.75z" style="fill:#25aae3;stroke:#25aae3;stroke-width:1px"/><path d="M3236.4 302.155c585.63-18.622 1191.93-16.57 1814.74 1.992l2 1926.293c-600.11 9.63-1206.01 7.65-1816.74-3.98z" style="fill:#0b9444;stroke:#0b9444;stroke-width:1px"/><path d="M1365.07 483.429c594.61-85.456 1198.89-144.293 1814.74-171.315l-9.96 1923.306c-634.78-10.74-1230.45-33.07-1806.77-59.76z" style="fill:#f6ee31;stroke:#f6ee31;stroke-width:1px"/><text x="2273.61" y="3090.74" style="font-family:&quot;BaskOldFace&quot;,&quot;Baskerville Old Face&quot;,serif;font-size:450px;fill:#fff" transform="rotate(5.202 2230.026 2131.227)">D</text><text x="2619.91" y="3121.97" style="font-family:&quot;TimesNewRomanPSMT&quot;,&quot;Times New Roman&quot;,serif;font-size:450px;fill:#fff" transform="rotate(4.377 2576.332 1981.166)">Ě</text><text x="2893.97" y="3143.06" style="font-family:&quot;BaskOldFace&quot;,&quot;Baskerville Old Face&quot;,serif;font-size:450px;fill:#fff" transform="rotate(3.6 2850.376 1755.989)">T</text><text x="3202.45" y="3162.06" style="font-family:&quot;BaskOldFace&quot;,&quot;Baskerville Old Face&quot;,serif;font-size:450px;fill:#fff" transform="rotate(2.965 3158.856 1477.905)">Í</text><text x="3476.11" y="3175.93" style="font-family:&quot;BaskOldFace&quot;,&quot;Baskerville Old Face&quot;,serif;font-size:450px;fill:#fff" transform="rotate(2.013 3432.548 694.148)">A</text><text x="3900.71" y="3190.09" style="font-family:&quot;BaskOldFace&quot;,&quot;Baskerville Old Face&quot;,serif;font-size:450px;fill:#fff" transform="rotate(.706 3857.263 -3861.77)">M</text><text x="4301.85" y="3194.57" style="font-family:&quot;BaskOldFace&quot;,&quot;Baskerville Old Face&quot;,serif;font-size:450px;fill:#fff" transform="rotate(-.269 4256.3 22130.353)">L</text><text x="4576.76" y="3193.49" style="font-family:&quot;BaskOldFace&quot;,&quot;Baskerville Old Face&quot;,serif;font-size:450px;fill:#fff" transform="rotate(-1.087 4533.028 7792.566)">Á</text><text x="4888.25" y="3187.7" style="font-family:&quot;BaskOldFace&quot;,&quot;Baskerville Old Face&quot;,serif;font-size:450px;fill:#fff" transform="rotate(-2.023 4844.596 5657.876)">D</text><text x="5235.18" y="3175.16" style="font-family:&quot;BaskOldFace&quot;,&quot;Baskerville Old Face&quot;,serif;font-size:450px;fill:#fff" transform="rotate(-2.96 5191.628 4862.057)">E</text><text x="5515.06" y="3160.67" style="font-family:&quot;TimesNewRomanPSMT&quot;,&quot;Times New Roman&quot;,serif;font-size:450px;fill:#fff" transform="rotate(-3.757 5471.476 4489.724)">Ž</text><text x="5790.14" y="3142.62" style="font-family:&quot;BaskOldFace&quot;,&quot;Baskerville Old Face&quot;,serif;font-size:450px;fill:#fff" transform="rotate(-4.6 5746.551 4227.916)">E</text><text x="2113.87" y="2534.92" style="font-family:&quot;BaskOldFace&quot;,&quot;Baskerville Old Face&quot;,serif;font-size:50px;fill:#fff" transform="matrix(7.18137 0 0 5.15231 -13044.4 -10451.5)">JIHOMORAVSKÁ RADA</text><path d="M1304.47 625.279c2445 256.666 4515.03 333.162 5663-26.789l2.34-151.555c-2321.49-350.646-4062.7-219.479-5665.7-.804z" style="fill:#fff;fill-opacity:.36"/><path d="M1363.45 1738.68v298.42c18.87 5.97 34.87-4.17 42.85-59.18 14.62-37.75 39.86-61.35 80.6-64.27 14.73-17.28 37.98-29.45 74.48-33.67 33.54-4.58 76.02-6.17 135.69-2.04 34.6-2.07 59.13-13.5 63.25-43.87 39.9-55.88 60.52-92.48 78.56-126.51 40.45 6.17 32.56 107.09 18.37 220.37l18.36 5.1c7.62 37.37 8.64 85.1 1.02 146.41l16.32 1.02c-6.12 29.58 1.02 48.56 27.55 52.03h385.65c15.75-15.09 14.58-35.38 2.04-59.17-31.63-7.26-50.61-25.05-56.12-54.08 19.17-44.64 44.29-77.38 76.52-95.9 75.65-26.61 142.42-72.72 176.5-190.78l74.48-80.6 30.61 118.35 12.24 161.19-34.69 63.26-7.14 44.89 20.4 10.2-2.44 19.38 11.22 5.11c-12.19 35.81-16.12 64.65 0 76.51l284.64-2.04c15.66-14.31 19.6-33.56-6.12-65.29-13.94-10.55-38.53-21.09-93.86-31.63-21.05-33.29-24.72-74.03-15.3-120.39l15.3 1.02-3.06-194.35-30.61-246.9-25.5-154.05 80.6-153.55 36.73-123.45 34.68 34.69 81.35 93.35 207.1 141.82 52.04 34.68 6.93 55.46c4.47 28.46 17.96 47.51 50.28 62.03 8.96-17.08 16.05-19.9 25.22-20.2 40.26-1.29 35.89-33.41 28.77-48.32-7.1-14.86-33.99-23.6-31.87-50.72 0 0-29.76-71.69-57.42-96.47-82.79-77.62-172.95-162.81-260.97-226.5-8.35-59.617-12.3-130.13-33.39-167.029-16.52-28.91-54.75-51.889-84.63-53.052-11.4-18.194-13.89-37.197-6.13-57.133 34.13-2.085 81.33-34.557 73.17-102.043l17.15-6.856c-11.29-54.624-8.71-65.744-2.58-89.026l21.8-2.652s-2.53-64.476-17.84-87.516c-15.3-23.04-45.04-43.608-73.33-57.255-35.85-17.297-118.45-17.009-166.3 27.546-38.38 35.731-70.98 101.768-89.34 155.84-17.01 50.079-24.14 117.556-20.85 168.594-114.52 21.788-239.49 115.942-302.4 195.884-47.46 60.308-102.85 138.898-143.53 220.878 2.31-64.9 1.3-124.51-5.1-175.48-5.64-38.028-14.48-71.774-34.69-97.94-20.2-26.165-86.55-53.827-86.55-53.827-16.83-23.323-16.3-54.038-5.27-80.843 9.36-16.403 26.85-27.839 53.63-28.567 27.14-.322 44.76-16.085 42.28-82.639-7.18-24.886-11.84-47.813-3.31-60.479l20.65-4.816-.21-36.952 16.66.653c-9.67-39.391-26.12-74.168-55.44-103.614-37.24-37.391-185.22-52.142-236.72 7.94-54.28 63.324-90.63 202.721-27.4 259.471 30.43 27.31 39.53 17.455 46.01 38.29s4.76 63.414-7.14 86.72c-72.11 2.64-116.89 56.276-152.92 112.225-35.9 55.758-122.43 174.968-122.43 174.968-38.23 57.37-64.57 129.01-69.37 226.49-13.01 4.3-33.69 20.07-39.78 37.16-7.01 19.64-10.12 68.64-3.92 89.04 5.19 17.07 33.38 39.71 38.6 30.41 8.51-15.2 11.61-52.87 29.03-50.69 8.84-1.83 12.67 2.49 21.51-2.68 6.74-3.42 11.73-18.51 10.67-36.41-10.76-5.03-14.72-14.08-15.96-24.67-1.53-13.09-.58-35.77 6.78-53.89 82.91-118.38 142.56-183.61 168.33-171.4 3.81 70.39-4.48 136.38-30.6 195.89-17.72 30.81-28.57 64.73-16.33 109.16 4.16 41.83 3.67 83.66-3.06 125.49-15.83 38.58-36.19 72.63-68.35 94.88-62.98 3.6-110.81 1.51-152.02-3.06v18.36c-26.1 4.69-51.57 6.2-75.49 0v13.27c-15.33 4.56-28.17 4.15-39.14 0m1152.69-673.16c-164.87-5.28-270.28 121.05-311.87 349.58 9.05 18.18 17.11 28.43 24.77 35.46 1.6 32.43-1.27 52.32-16.44 55.4-13.35 7.98-17.55 52.49-33.73 56.73-15.06 3.95-60.19-8.42-59.69-56.9-19.99-18.55-13.75-22.27-11.79-46.05-10.79-73.78-23.12-141.79-51.01-151.44-37.6 95.28-48.48 226.19-22.32 406.49 12.67 68.03 18.16 146.11 9.57 243.9 159.17-143.9 286.64-268.97 339.54-349.11 3.19-119.28-4.51-171.9 6.38-229.55 8.07-42.73 12.82-72.6 58.98-116.37 18.59-39.54 27.49-76.86 39.13-111.77 10.25-30.71 24.06-59.55 28.48-86.37" style="fill:#fff;stroke:#fff;stroke-opacity:.85;stroke-width:3.3px"/><path d="m3634.14 726.78-7.65 53.562c-90.12-.606-198.52 115.333-343.05 461.658l-7.66 60.57c-41.6 90.58-61.69 111.35-62.48 144.11-10.84 2.71-1.55 83.6 24.23 82.9 9.94-.28 31.24-7.66 42.08-17.86 10.57-9.94 22.96-43.36 22.96-43.36 18.45-24.59 16.83-52.77 11.47-94.37 44.24-122.75 101.15-194.8 165.79-235.93 20.81 55.69 16.6 111.38 0 167.06l-25.5 71.42c-19.28 31.17-15.11 77.23-3.83 139.01 4.72 130.41-45.1 192.87-128.8 211.06l-119.88-14.03-16.58 30.61-64.84-.29-4.03 16.86-27.79 1.49-.26 134.97-12.76 8.93-3.82 135.18c10.48 78.96 60.6 22.06 66.31-17.86 24.38-40.96 57.87-64.76 94.37-82.89l70.15-5.1 12.75-20.41 104.57-1.27c70.06 1.25 75.12-48.69 75.12-48.69.42-4.14 71.62-137.69 101.71-147.27-.83 173.2 10.63 283.76 27.22 368.12l6.38 38.26 11.35 5.94-1.15 18.29c-1.23 23.36-.99 47.44 43.36 39.54l358.35 5.34c39.24.93 43.6-15.05 38.12-35.51-1.94-7.27-5.7-17.95-8.78-24.67-17.5-23.33-49.14-37.85-73.59-55.96 35.24-36.3 54.36-87.14 87.61-120.03 75.01-21.35 128.75-83.47 161.97-184.92 20.09-47.93 46.78-79.86 79.06-98.19 49.27 79.54 44.14 264.18 39.38 286.31-9.42 43.87-28.74 88.22-33 131.98l30.61 8.93-1.28 22.95c-16.73 45.35-13.46 67.85 6.38 71.42l267.34.15c52.37-4.84 33.35-42.88 19.54-59.35-16.08-19.15-90.29-38.57-115.99-55.58l5.1-209.14c8.71-51.99-12.88-334.77-15.31-322.65-21.33-69.55-33.86-142.03-39.53-216.8 47.33-61.04 82.47-137.31 88-250.6 3.99-24.4 13.61-35.68 28.05-35.71 63.91 57.6 138.79 98.26 221.86 126.26 74.58 67.97 142 118.75 207.87 165.79 12.38 4.21 17.66 21.6 17.85 48.46 0 0 24.66 63.76 38.26 75.24 11.16 9.42 33.05.99 43.36-6.38 10.31-7.36 20.1-23.87 18.51-37.82-1.92-16.79-29.47-29.86-29.99-62.93l-56.11-113.5c-98.08-108.12-198.48-215.07-309.64-316.651-36.51-76.889-80.24-123.995-134.16-129.059-15.81-5.404-17.81-23.089-14.03-45.911 60.62-1.786 76.63-32.847 67.59-80.343l22.96-6.376c-1.92-50.737-4.02-101.956 5.1-121.79 32.01-14.298 29.63-47.867 11.58-79.579-5.5-31.345-17.32-53.853-51.12-83.021-63.6-34.942-122.89-45.447-173.44-6.376-63.97 36.441-85.36 93.386-90.54 158.136-28.82 34.433-42.31 75.836-47.19 121.152-12.31 43.772-2.82 65.743 8.93 85.444-228.25 30.788-345.74 209.25-448.9 406.814l-12.75-165.784c-.15-53.915-18.56-98.695-61.22-131.355l-68.86-63.764 12.75-76.518c65.54 13.678 84.97-18.747 86.72-68.865l3.82-33.158 15.31 1.276c-6.81-27.97-12.75-54.972-8.35-70.325l19.36 3.257 1.97-27.873 12.98 6.974c-5.07-45.6-25.96-112.991-94.83-154.338-44.17-22.902-93.29-39.757-188.74 0-83.42 57.699-95.56 146.764-72.69 251.232 11.82 44.26 36.69 81.994 74.01 113.501m623.46 310.53c-208.09 26.36-268.93 178.94-298.1 358.67 24.35 32.94 31.45 65.89 17.54 98.84l-28.7 36.66c-41.98 94.1-72.84 32.49-102.02-52.61 6.97-89.12 3.66-134.58-6.38-151.44-5.96-17.53-20.07-35.07-43.04-52.6-52.7 307.88-15.82 517.57 9.57 721.33 57.67-96.94 105.98-151.74 146.66-172.16 69.41-72.26 127.72-139.76 167.38-199.26 4.78-109.46 3.19-102.6 7.97-148.26-30.76-64.24 8.82-202.52 58.98-232.74z" style="fill:#fff;stroke:#fff;stroke-opacity:.85;stroke-width:3.3px"/><path d="M5707.89 515.746c-3.47-58.399-49.11-84.729-81.87-100.321-94.29-61.358-181.46-25.956-229.48 13.143-30.7 25.002-54.4 115.543-45.57 168.991 8.82 53.448 55.05 120.852 98.5 151.7 2.36 22.077-1.5 37.94-9.34 49.816-106.82 13.061-135.96 53.009-154.01 96.797-97.19 103.802-173.62 217.988-202.77 355.808-40.36 57.26-66.84 123.78-45.91 221.9 10.17 37.55 24.67 51.31 48.46 14.03l14.02-40.81 2.56-65.04c45.75-127.67 109.82-198.38 186.19-230.83 8.26 16.78 9.16 59.31 3.82 123.7-4.58 54.7-17.52 84.31-35.71 98.2-16.56 40.82-15.31 99.46-1.27 170.89-5.62 143.29-72.55 176.24-163.24 166.42l-73.96-12.75-10.21 31.88-65.04-5.1-8.92 14.03c-23.48-5.39-39.88-2.69-39.54 19.13l-5.1 72.69s5.1 11.48 8.93 14.03-12.75 28.06-12.75 28.06l-8.93 127.52c15.2 106.46 57.49 89.95 77.79-2.55 32.31-57.32 64.62-77.06 96.92-86.72l130.08-10.2c79.22 9.51 112.09-16.3 119.88-61.21 33.32-62.71 67.85-106.49 94.37-124.98 15.75 19.21 10.93 136.7 11.48 228.28l15.3 2.55 2.55 131.35 12.76 2.55-1.28 29.33c10.62 47.23 33.12 49.89 57.39 45.91l351.98-5.1c37.55-6.8 39.42-28.89 29.33-56.11-22.53-12.77-45.06-30.15-67.59-59.94 35.06-47.16 58.06-77.38 82.89-90.54 91.15-23.99 129.12-85.21 152.17-156.86 26.47-45.21 52.18-86.6 75.24-114.78 30.74 16.52 40.35 42.1 47.19 68.87l14.03 198.94c-38.37 54.68-49.22 98.78-43.36 136.46l20.4 3.82c-19.9 45.53-14.11 71.8 20.41 76.52l249.95-11.48c58.01-.54 57.95-32.85 20.41-63.76-48.39-7.57-90.68-19.19-108.4-47.19l5.1-267.81c5.45-96.57-10.85-162.08-29.33-224.45-19.46-58.97-29.86-112.77-25.51-158.14 74.2-53 91.17-158.67 90.55-262.71 86.03 63.84 169 106.21 248.23 122.43 75.26 54.3 148.77 107.85 175.99 141.56 50.02 37.18 78.48 28.12 104.57 14.03 19.5-10.13 29.4-22.18 31.89-35.71-27.84-42.56-61.01-53.14-95.65-54.84-67.56-55.61-133.51-117.62-197.67-186.83a1260 1260 0 0 0-128.8-140.28c-23.49-46.674-67.05-71.729-100.75-84.169-15.53-21.497-11.26-34.191 3.82-42.084 54.62 6.244 68.26-16.431 65.04-51.012l17.86-7.652c-6.41-39.894-9.03-90.064-5.1-105.849l24.23-4.463c9.61-30.09 22.4-59.043-16.58-106.487-95.42-105.603-179.65-93.643-261.44-56.112-37.7 31.882-45.66 63.764-45.91 95.646l1.28 39.534c-47.39 27.499-54.25 60.066-47.19 94.372-11.53 36.113-5.9 59.966 6.38 79.068-83.76-.449-150.47 22.978-200.22 70.14-120.06 43.684-173.77 167.938-242.31 274.188-2.49-34.06-5.78-64.52-1.27-130.08-7.99-74.738-23.47-128.458-48.46-155.585l-80.35-57.388c-17.33-37.057-14.99-56.902-5.1-70.141 58.05 2.884 97.86-13.472 87.89-58.202 1.19-16.506-3.16-27.792 1.38-29.793l15.31-1.275-10.21-80.343 19.59 7.06-.46-38.943 17.86 3.826c3.6-19.624 6.91-39.062-5.41-48.55M6065 1092.04c-162.04-2.86-269.17 104.42-311.65 307.47 0 0 23.05 36.36 23.93 55.27.88 18.92 14.05 58.02-18.65 58.21-8.97 60.88-54.49 74.25-73.57 47.68-12.65-17.62-32.53-53.64-40.89-109.65l-2.61-99.93c2.51-25.47-12.47-45.11-49.82-57.29-28.01 136.33-27.62 352.69 17.44 694.93 43.81-69.93 96.5-153.41 166.88-196.77 55.59-38.7 107.15-87.49 149.45-159.41 16.12-64.52 15.44-120.64 4.98-171.87-2.93-90.94 19.54-156.48 69.74-194.28 18.21-85.14 39.91-142.35 64.77-174.36" style="fill:#fff;stroke:#fff;stroke-opacity:.85;stroke-width:3.3px"/><defs><linearGradient id="a" x1="0" x2="1" y1="0" y2="0" gradientTransform="matrix(5794.34 -2775.75 2754.43 5839.18 1219.21 3183.08)" gradientUnits="userSpaceOnUse"><stop offset="0" style="stop-color:white;stop-opacity:1"/><stop offset=".6" style="stop-color:#f2f2f2;stop-opacity:1"/><stop offset=".81" style="stop-color:#d3d3d3;stop-opacity:1"/><stop offset="1" style="stop-color:#b3b3b3;stop-opacity:1"/></linearGradient></defs></svg>