<?xml version="1.0" encoding="UTF-8" standalone="no"?>
<!DOCTYPE svg PUBLIC "-//W3C//DTD SVG 1.1//EN" "http://www.w3.org/Graphics/SVG/1.1/DTD/svg11.dtd">
<svg width="100%" height="100%" viewBox="0 0 8268 3544" version="1.1" xmlns="http://www.w3.org/2000/svg" xmlns:xlink="http://www.w3.org/1999/xlink" xml:space="preserve" xmlns:serif="http://www.serif.com/" style="fill-rule:evenodd;clip-rule:evenodd;stroke-linecap:round;stroke-linejoin:round;stroke-miterlimit:1.5;">
    <g id="Spodní-šedá-pole---rámeček" serif:id="Spodní šedá pole + rámeček">
        <path d="M1258.39,404.593L1264.47,3176.71C3155.12,3533.11 5070.04,3541.71 7009.32,3201.03L7009.32,410.672C5092.35,121.364 3175.37,110.297 1258.39,404.593Z" style="fill:rgb(86,86,86);stroke:rgb(86,86,86);stroke-width:1px;"/>
        <g transform="matrix(0.985201,0,0,0.977634,61.1777,46.7756)">
            <path d="M1258.39,404.593L1264.47,3176.71C3155.12,3533.11 5070.04,3541.71 7009.32,3201.03L7009.32,410.672C5092.35,121.364 3175.37,110.297 1258.39,404.593Z" style="fill:url(#_Linear1);stroke:white;stroke-width:1.02px;"/>
        </g>
        <g transform="matrix(0.998906,0,0,0.966246,1.48331,76.0363)">
            <path d="M1355.66,2258.75L1361.74,2897.07C3377.87,3033.36 5238.83,3031.08 6914.55,2905.72L6916.97,2275.87C5111.71,2378.68 3242.02,2368.39 1355.66,2258.75Z" style="fill:rgb(120,120,120);stroke:rgb(120,120,120);stroke-width:1.02px;"/>
        </g>
        <g transform="matrix(1,0,0,0.974684,0,300.043)">
            <path d="M1361.74,2878.83L1361.72,2639.73C3194.89,2765.64 5042.88,2738.95 6908.48,2647.59L6905.55,2897.13C5010.83,3199.98 3159.2,3202.11 1361.74,2878.83Z" style="fill:rgb(90,90,90);stroke:rgb(90,90,90);stroke-width:1.01px;"/>
        </g>
        <path d="M5111.17,325.517L5111.98,2233.94C5757.82,2226.63 6365.26,2208.65 6915.48,2174.78L6920.34,500.598C6035.12,370.985 5470.48,322.324 5111.17,325.517Z" style="fill:none;stroke:rgb(120,120,120);stroke-width:1px;"/>
    </g>
    <g id="Barevná-pole" serif:id="Barevná pole">
        <path d="M5117.1,321.081C5680.09,348.99 6281.86,412.694 6913.91,504.348L6911.92,2173.67C6347.84,2210.66 5742.95,2225 5115.11,2235.42L5117.1,321.081Z" style="fill:rgb(37,170,227);stroke:rgb(37,170,227);stroke-width:1px;"/>
        <path d="M3236.4,302.155C3822.03,283.533 4428.33,285.585 5051.14,304.147L5053.14,2230.44C4453.03,2240.07 3847.13,2238.09 3236.4,2226.46L3236.4,302.155Z" style="fill:rgb(11,148,68);stroke:rgb(11,148,68);stroke-width:1px;"/>
        <path d="M1365.07,483.429C1959.68,397.973 2563.96,339.136 3179.81,312.114L3169.85,2235.42C2535.07,2224.68 1939.4,2202.35 1363.08,2175.66L1365.07,483.429Z" style="fill:rgb(246,238,49);stroke:rgb(246,238,49);stroke-width:1px;"/>
    </g>
    <g id="Texty">
        <g transform="matrix(1,0,0,1,-87.178,-0.000118771)">
            <g transform="matrix(0.995881,0.0906701,-0.0906701,0.995881,289.602,-193.418)">
                <text x="2273.61px" y="3090.74px" style="font-family:'BaskOldFace', 'Baskerville Old Face', serif;font-size:450px;fill:white;">D</text>
            </g>
            <g transform="matrix(0.997084,0.0763078,-0.0763078,0.997084,245.869,-190.817)">
                <text x="2619.91px" y="3121.97px" style="font-family:'TimesNewRomanPSMT', 'Times New Roman', serif;font-size:450px;fill:white;">Ě</text>
            </g>
            <g transform="matrix(0.998027,0.0627881,-0.0627881,0.998027,203.057,-175.505)">
                <text x="2893.97px" y="3143.06px" style="font-family:'BaskOldFace', 'Baskerville Old Face', serif;font-size:450px;fill:white;">T</text>
            </g>
            <g transform="matrix(0.998661,0.0517295,-0.0517295,0.998661,167.859,-161.427)">
                <text x="3202.45px" y="3162.06px" style="font-family:'BaskOldFace', 'Baskerville Old Face', serif;font-size:450px;fill:white;">Í</text>
            </g>
            <g transform="matrix(0.999383,0.0351166,-0.0351166,0.999383,113.672,-120.111)">
                <text x="3476.11px" y="3175.93px" style="font-family:'BaskOldFace', 'Baskerville Old Face', serif;font-size:450px;fill:white;">A</text>
            </g>
            <g transform="matrix(0.999924,0.0123617,-0.0123617,0.999924,39.7331,-47.9757)">
                <text x="3900.71px" y="3190.09px" style="font-family:'BaskOldFace', 'Baskerville Old Face', serif;font-size:450px;fill:white;">M</text>
            </g>
            <g transform="matrix(0.999989,-0.00460394,0.00460394,0.999989,-14.662,19.8393)">
                <text x="4301.85px" y="3194.57px" style="font-family:'BaskOldFace', 'Baskerville Old Face', serif;font-size:450px;fill:white;">L</text>
            </g>
            <g transform="matrix(0.99982,-0.0189542,0.0189542,0.99982,-59.7079,87.3227)">
                <text x="4576.76px" y="3193.49px" style="font-family:'BaskOldFace', 'Baskerville Old Face', serif;font-size:450px;fill:white;">Á</text>
            </g>
            <g transform="matrix(0.999377,-0.035282,0.035282,0.999377,-109.425,174.452)">
                <text x="4888.25px" y="3187.7px" style="font-family:'BaskOldFace', 'Baskerville Old Face', serif;font-size:450px;fill:white;">D</text>
            </g>
            <g transform="matrix(0.998666,-0.0516437,0.0516437,0.998666,-156.991,274.601)">
                <text x="5235.18px" y="3175.16px" style="font-family:'BaskOldFace', 'Baskerville Old Face', serif;font-size:450px;fill:white;">E</text>
            </g>
            <g transform="matrix(0.997851,-0.0655239,0.0655239,0.997851,-195.248,368.161)">
                <text x="5515.06px" y="3160.67px" style="font-family:'TimesNewRomanPSMT', 'Times New Roman', serif;font-size:450px;fill:white;">Ž</text>
            </g>
            <g transform="matrix(0.996779,-0.0801971,0.0801971,0.996779,-233.379,474.475)">
                <text x="5790.14px" y="3142.62px" style="font-family:'BaskOldFace', 'Baskerville Old Face', serif;font-size:450px;fill:white;">E</text>
            </g>
        </g>
        <g transform="matrix(7.18137,0,0,5.15231,-13044.4,-10451.5)">
            <text x="2113.87px" y="2534.92px" style="font-family:'BaskOldFace', 'Baskerville Old Face', serif;font-size:50px;fill:white;">JIHOMORAVSKÁ RADA</text>
        </g>
    </g>
    <g id="Překryv">
        <path id="překryv" d="M1304.47,625.279C3749.47,881.945 5819.5,958.441 6967.47,598.49L6969.81,446.935C4648.32,96.289 2907.11,227.456 1304.11,446.131L1304.47,625.279Z" style="fill:white;fill-opacity:0.36;"/>
    </g>
    <g id="Postavy">
        <path id="Postavy-žluté" serif:id="Postavy žluté" d="M1363.45,1738.68L1363.45,2037.1C1382.32,2043.07 1398.32,2032.93 1406.3,1977.92C1420.92,1940.17 1446.16,1916.57 1486.9,1913.65C1501.63,1896.37 1524.88,1884.2 1561.38,1879.98C1594.92,1875.4 1637.4,1873.81 1697.07,1877.94C1731.67,1875.87 1756.2,1864.44 1760.32,1834.07C1800.22,1778.19 1820.84,1741.59 1838.88,1707.56C1879.33,1713.73 1871.44,1814.65 1857.25,1927.93L1875.61,1933.03C1883.23,1970.4 1884.25,2018.13 1876.63,2079.44L1892.95,2080.46C1886.83,2110.04 1893.97,2129.02 1920.5,2132.49L2306.15,2132.49C2321.9,2117.4 2320.73,2097.11 2308.19,2073.32C2276.56,2066.06 2257.58,2048.27 2252.07,2019.24C2271.24,1974.6 2296.36,1941.86 2328.59,1923.34C2404.24,1896.73 2471.01,1850.62 2505.09,1732.56L2579.57,1651.96L2610.18,1770.31L2622.42,1931.5L2587.73,1994.76L2580.59,2039.65L2600.99,2049.85L2598.55,2069.23L2609.77,2074.34C2597.58,2110.15 2593.65,2138.99 2609.77,2150.85L2894.41,2148.81C2910.07,2134.5 2914.01,2115.25 2888.29,2083.52C2874.35,2072.97 2849.76,2062.43 2794.43,2051.89C2773.38,2018.6 2769.71,1977.86 2779.13,1931.5L2794.43,1932.52L2791.37,1738.17L2760.76,1491.27L2735.26,1337.22L2815.86,1183.67L2852.59,1060.22L2887.27,1094.91L2968.62,1188.26L3175.72,1330.08L3227.76,1364.76L3234.69,1420.22C3239.16,1448.68 3252.65,1467.73 3284.97,1482.25C3293.93,1465.17 3301.02,1462.35 3310.19,1462.05C3350.45,1460.76 3346.08,1428.64 3338.96,1413.73C3331.86,1398.87 3304.97,1390.13 3307.09,1363.01C3307.09,1363.01 3277.33,1291.32 3249.67,1266.54C3166.88,1188.92 3076.72,1103.73 2988.7,1040.04C2980.35,980.423 2976.4,909.91 2955.31,873.011C2938.79,844.101 2900.56,821.122 2870.68,819.959C2859.28,801.765 2856.79,782.762 2864.55,762.826C2898.68,760.741 2945.88,728.269 2937.72,660.783L2954.87,653.927C2943.58,599.303 2946.16,588.183 2952.29,564.901L2974.09,562.249C2974.09,562.249 2971.56,497.773 2956.25,474.733C2940.95,451.693 2911.21,431.125 2882.92,417.478C2847.07,400.181 2764.47,400.469 2716.62,445.024C2678.24,480.755 2645.64,546.792 2627.28,600.864C2610.27,650.943 2603.14,718.42 2606.43,769.458C2491.91,791.246 2366.94,885.4 2304.03,965.342C2256.57,1025.65 2201.18,1104.24 2160.5,1186.22C2162.81,1121.32 2161.8,1061.71 2155.4,1010.74C2149.76,972.712 2140.92,938.966 2120.71,912.8C2100.51,886.635 2034.16,858.973 2034.16,858.973C2017.33,835.65 2017.86,804.935 2028.89,778.13C2038.25,761.727 2055.74,750.291 2082.52,749.563C2109.66,749.241 2127.28,733.478 2124.8,666.924C2117.62,642.038 2112.96,619.111 2121.49,606.445L2142.14,601.629L2141.93,564.677L2158.59,565.33C2148.92,525.939 2132.47,491.162 2103.15,461.716C2065.91,424.325 1917.93,409.574 1866.43,469.656C1812.15,532.98 1775.8,672.377 1839.03,729.127C1869.46,756.437 1878.56,746.582 1885.04,767.417C1891.52,788.252 1889.8,830.831 1877.9,854.137C1805.79,856.777 1761.01,910.413 1724.98,966.362C1689.08,1022.12 1602.55,1141.33 1602.55,1141.33C1564.32,1198.7 1537.98,1270.34 1533.18,1367.82C1520.17,1372.12 1499.49,1387.89 1493.4,1404.98C1486.39,1424.62 1483.28,1473.62 1489.48,1494.02C1494.67,1511.09 1522.86,1533.73 1528.08,1524.43C1536.59,1509.23 1539.69,1471.56 1557.11,1473.74C1565.95,1471.91 1569.78,1476.23 1578.62,1471.06C1585.36,1467.64 1590.35,1452.55 1589.29,1434.65C1578.53,1429.62 1574.57,1420.57 1573.33,1409.98C1571.8,1396.89 1572.75,1374.21 1580.11,1356.09C1663.02,1237.71 1722.67,1172.48 1748.44,1184.69C1752.25,1255.08 1743.96,1321.07 1717.84,1380.58C1700.12,1411.39 1689.27,1445.31 1701.51,1489.74C1705.67,1531.57 1705.18,1573.4 1698.45,1615.23C1682.62,1653.81 1662.26,1687.86 1630.1,1710.11C1567.12,1713.71 1519.29,1711.62 1478.08,1707.05L1478.08,1725.41C1451.98,1730.1 1426.51,1731.61 1402.59,1725.41L1402.59,1738.68C1387.26,1743.24 1374.42,1742.83 1363.45,1738.68ZM2516.14,1065.52C2351.27,1060.24 2245.86,1186.57 2204.27,1415.1C2213.32,1433.28 2221.38,1443.53 2229.04,1450.56C2230.64,1482.99 2227.77,1502.88 2212.6,1505.96C2199.25,1513.94 2195.05,1558.45 2178.87,1562.69C2163.81,1566.64 2118.68,1554.27 2119.18,1505.79C2099.19,1487.24 2105.43,1483.52 2107.39,1459.74C2096.6,1385.96 2084.27,1317.95 2056.38,1308.3C2018.78,1403.58 2007.9,1534.49 2034.06,1714.79C2046.73,1782.82 2052.22,1860.9 2043.63,1958.69C2202.8,1814.79 2330.27,1689.72 2383.17,1609.58C2386.36,1490.3 2378.66,1437.68 2389.55,1380.03C2397.62,1337.3 2402.37,1307.43 2448.53,1263.66C2467.12,1224.12 2476.02,1186.8 2487.66,1151.89C2497.91,1121.18 2511.72,1092.34 2516.14,1065.52Z" style="fill:white;stroke:white;stroke-opacity:0.85;stroke-width:3.3px;"/>
        <path id="Postavy-zelené" serif:id="Postavy zelené" d="M3634.14,726.78L3626.49,780.342C3536.37,779.736 3427.97,895.675 3283.44,1242L3275.78,1302.57C3234.18,1393.15 3214.09,1413.92 3213.3,1446.68C3202.46,1449.39 3211.75,1530.28 3237.53,1529.58C3247.47,1529.3 3268.77,1521.92 3279.61,1511.72C3290.18,1501.78 3302.57,1468.36 3302.57,1468.36C3321.02,1443.77 3319.4,1415.59 3314.04,1373.99C3358.28,1251.24 3415.19,1179.19 3479.83,1138.06C3500.64,1193.75 3496.43,1249.44 3479.83,1305.12L3454.33,1376.54C3435.05,1407.71 3439.22,1453.77 3450.5,1515.55C3455.22,1645.96 3405.4,1708.42 3321.7,1726.61L3201.82,1712.58L3185.24,1743.19L3120.4,1742.9L3116.37,1759.76L3088.58,1761.25L3088.32,1896.22L3075.56,1905.15L3071.74,2040.33C3082.22,2119.29 3132.34,2062.39 3138.05,2022.47C3162.43,1981.51 3195.92,1957.71 3232.42,1939.58L3302.57,1934.48L3315.32,1914.07L3419.89,1912.8C3489.95,1914.05 3495.01,1864.11 3495.01,1864.11C3495.43,1859.97 3566.63,1726.42 3596.72,1716.84C3595.89,1890.04 3607.35,2000.6 3623.94,2084.96L3630.32,2123.22L3641.67,2129.16L3640.52,2147.45C3639.29,2170.81 3639.53,2194.89 3683.88,2186.99L4042.23,2192.33C4081.47,2193.26 4085.83,2177.28 4080.35,2156.82C4078.41,2149.55 4074.65,2138.87 4071.57,2132.15C4054.07,2108.82 4022.43,2094.3 3997.98,2076.19C4033.22,2039.89 4052.34,1989.05 4085.59,1956.16C4160.6,1934.81 4214.34,1872.69 4247.56,1771.24C4267.65,1723.31 4294.34,1691.38 4326.62,1673.05C4375.89,1752.59 4370.76,1937.23 4366,1959.36C4356.58,2003.23 4337.26,2047.58 4333,2091.34L4363.61,2100.27L4362.33,2123.22C4345.6,2168.57 4348.87,2191.07 4368.71,2194.64L4636.05,2194.79C4688.42,2189.95 4669.4,2151.91 4655.59,2135.44C4639.51,2116.29 4565.3,2096.87 4539.6,2079.86L4544.7,1870.72C4553.41,1818.73 4531.82,1535.95 4529.39,1548.07C4508.06,1478.52 4495.53,1406.04 4489.86,1331.27C4537.19,1270.23 4572.33,1193.96 4577.86,1080.67C4581.85,1056.27 4591.47,1044.99 4605.91,1044.96C4669.82,1102.56 4744.7,1143.22 4827.77,1171.22C4902.35,1239.19 4969.77,1289.97 5035.64,1337.01C5048.02,1341.22 5053.3,1358.61 5053.49,1385.47C5053.49,1385.47 5078.15,1449.23 5091.75,1460.71C5102.91,1470.13 5124.8,1461.7 5135.11,1454.33C5145.42,1446.97 5155.21,1430.46 5153.62,1416.51C5151.7,1399.72 5124.15,1386.65 5123.63,1353.58L5067.52,1240.08C4969.44,1131.96 4869.04,1025.01 4757.88,923.429C4721.37,846.54 4677.64,799.434 4623.72,794.37C4607.91,788.966 4605.91,771.281 4609.69,748.459C4670.31,746.673 4686.32,715.612 4677.28,668.116L4700.24,661.74C4698.32,611.003 4696.22,559.784 4705.34,539.95C4737.35,525.652 4734.97,492.083 4716.92,460.371C4711.42,429.026 4699.6,406.518 4665.8,377.35C4602.2,342.408 4542.91,331.903 4492.36,370.974C4428.39,407.415 4407,464.36 4401.82,529.11C4373,563.543 4359.51,604.946 4354.63,650.262C4342.32,694.034 4351.81,716.005 4363.56,735.706C4135.31,766.494 4017.82,944.956 3914.66,1142.52L3901.91,976.736C3901.76,922.821 3883.35,878.041 3840.69,845.381L3771.83,781.617L3784.58,705.099C3850.12,718.777 3869.55,686.352 3871.3,636.234L3875.12,603.076L3890.43,604.352C3883.62,576.382 3877.68,549.38 3882.08,534.027L3901.44,537.284L3903.41,509.411L3916.39,516.385C3911.32,470.785 3890.43,403.394 3821.56,362.047C3777.39,339.145 3728.27,322.29 3632.82,362.047C3549.4,419.746 3537.26,508.811 3560.13,613.279C3571.95,657.539 3596.82,695.273 3634.14,726.78ZM4257.6,1037.31C4049.51,1063.67 3988.67,1216.25 3959.5,1395.98C3983.85,1428.92 3990.95,1461.87 3977.04,1494.82L3948.34,1531.48C3906.36,1625.58 3875.5,1563.97 3846.32,1478.87C3853.29,1389.75 3849.98,1344.29 3839.94,1327.43C3833.98,1309.9 3819.87,1292.36 3796.9,1274.83C3744.2,1582.71 3781.08,1792.4 3806.47,1996.16C3864.14,1899.22 3912.45,1844.42 3953.13,1824C4022.54,1751.74 4080.85,1684.24 4120.51,1624.74C4125.29,1515.28 4123.7,1522.14 4128.48,1476.48C4097.72,1412.24 4137.3,1273.96 4187.46,1243.74L4257.6,1037.31Z" style="fill:white;stroke:white;stroke-opacity:0.85;stroke-width:3.3px;"/>
        <path id="Postavy-modre" serif:id="Postavy modre" d="M5707.89,515.746C5704.42,457.347 5658.78,431.017 5626.02,415.425C5531.73,354.067 5444.56,389.469 5396.54,428.568C5365.84,453.57 5342.14,544.111 5350.97,597.559C5359.79,651.007 5406.02,718.411 5449.47,749.259C5451.83,771.336 5447.97,787.199 5440.13,799.075C5333.31,812.136 5304.17,852.084 5286.12,895.872C5188.93,999.674 5112.5,1113.86 5083.35,1251.68C5042.99,1308.94 5016.51,1375.46 5037.44,1473.58C5047.61,1511.13 5062.11,1524.89 5085.9,1487.61L5099.92,1446.8L5102.48,1381.76C5148.23,1254.09 5212.3,1183.38 5288.67,1150.93C5296.93,1167.71 5297.83,1210.24 5292.49,1274.63C5287.91,1329.33 5274.97,1358.94 5256.78,1372.83C5240.22,1413.65 5241.47,1472.29 5255.51,1543.72C5249.89,1687.01 5182.96,1719.96 5092.27,1710.14L5018.31,1697.39L5008.1,1729.27L4943.06,1724.17L4934.14,1738.2C4910.66,1732.81 4894.26,1735.51 4894.6,1757.33L4889.5,1830.02C4889.5,1830.02 4894.6,1841.5 4898.43,1844.05C4902.26,1846.6 4885.68,1872.11 4885.68,1872.11L4876.75,1999.63C4891.95,2106.09 4934.24,2089.58 4954.54,1997.08C4986.85,1939.76 5019.16,1920.02 5051.46,1910.36L5181.54,1900.16C5260.76,1909.67 5293.63,1883.86 5301.42,1838.95C5334.74,1776.24 5369.27,1732.46 5395.79,1713.97C5411.54,1733.18 5406.72,1850.67 5407.27,1942.25L5422.57,1944.8L5425.12,2076.15L5437.88,2078.7L5436.6,2108.03C5447.22,2155.26 5469.72,2157.92 5493.99,2153.94L5845.97,2148.84C5883.52,2142.04 5885.39,2119.95 5875.3,2092.73C5852.77,2079.96 5830.24,2062.58 5807.71,2032.79C5842.77,1985.63 5865.77,1955.41 5890.6,1942.25C5981.75,1918.26 6019.72,1857.04 6042.77,1785.39C6069.24,1740.18 6094.95,1698.79 6118.01,1670.61C6148.75,1687.13 6158.36,1712.71 6165.2,1739.48L6179.23,1938.42C6140.86,1993.1 6130.01,2037.2 6135.87,2074.88L6156.27,2078.7C6136.37,2124.23 6142.16,2150.5 6176.68,2155.22L6426.63,2143.74C6484.64,2143.2 6484.58,2110.89 6447.04,2079.98C6398.65,2072.41 6356.36,2060.79 6338.64,2032.79L6343.74,1764.98C6349.19,1668.41 6332.89,1602.9 6314.41,1540.53C6294.95,1481.56 6284.55,1427.76 6288.9,1382.39C6363.1,1329.39 6380.07,1223.72 6379.45,1119.68C6465.48,1183.52 6548.45,1225.89 6627.68,1242.11C6702.94,1296.41 6776.45,1349.96 6803.67,1383.67C6853.69,1420.85 6882.15,1411.79 6908.24,1397.7C6927.74,1387.57 6937.64,1375.52 6940.13,1361.99C6912.29,1319.43 6879.12,1308.85 6844.48,1307.15C6776.92,1251.54 6710.97,1189.53 6646.81,1120.32C6607.29,1070.15 6564.33,1023.41 6518.01,980.04C6494.52,933.366 6450.96,908.311 6417.26,895.871C6401.73,874.374 6406,861.68 6421.08,853.787C6475.7,860.031 6489.34,837.356 6486.12,802.775L6503.98,795.123C6497.57,755.229 6494.95,705.059 6498.88,689.274L6523.11,684.811C6532.72,654.721 6545.51,625.768 6506.53,578.324C6411.11,472.721 6326.88,484.681 6245.09,522.212C6207.39,554.094 6199.43,585.976 6199.18,617.858L6200.46,657.392C6153.07,684.891 6146.21,717.458 6153.27,751.764C6141.74,787.877 6147.37,811.73 6159.65,830.832C6075.89,830.383 6009.18,853.81 5959.43,900.972C5839.37,944.656 5785.66,1068.91 5717.12,1175.16C5714.63,1141.1 5711.34,1110.64 5715.85,1045.08C5707.86,970.342 5692.38,916.622 5667.39,889.495L5587.04,832.107C5569.71,795.05 5572.05,775.205 5581.94,761.966C5639.99,764.85 5679.8,748.494 5669.83,703.764C5671.02,687.258 5666.67,675.972 5671.21,673.971L5686.52,672.696L5676.31,592.353L5695.9,599.413L5695.44,560.47L5713.3,564.296C5716.9,544.672 5720.21,525.234 5707.89,515.746ZM6065,1092.04C5902.96,1089.18 5795.83,1196.46 5753.35,1399.51C5753.35,1399.51 5776.4,1435.87 5777.28,1454.78C5778.16,1473.7 5791.33,1512.8 5758.63,1512.99C5749.66,1573.87 5704.14,1587.24 5685.06,1560.67C5672.41,1543.05 5652.53,1507.03 5644.17,1451.02L5641.56,1351.09C5644.07,1325.62 5629.09,1305.98 5591.74,1293.8C5563.73,1430.13 5564.12,1646.49 5609.18,1988.73C5652.99,1918.8 5705.68,1835.32 5776.06,1791.96C5831.65,1753.26 5883.21,1704.47 5925.51,1632.55C5941.63,1568.03 5940.95,1511.91 5930.49,1460.68C5927.56,1369.74 5950.03,1304.2 6000.23,1266.4C6018.44,1181.26 6040.14,1124.05 6065,1092.04Z" style="fill:white;stroke:white;stroke-opacity:0.85;stroke-width:3.3px;"/>
    </g>
    <g id="Layer1">
    </g>
    <defs>
        <linearGradient id="_Linear1" x1="0" y1="0" x2="1" y2="0" gradientUnits="userSpaceOnUse" gradientTransform="matrix(5794.34,-2775.75,2754.43,5839.18,1219.21,3183.08)"><stop offset="0" style="stop-color:white;stop-opacity:1"/><stop offset="0.6" style="stop-color:rgb(242,242,242);stop-opacity:1"/><stop offset="0.81" style="stop-color:rgb(211,211,211);stop-opacity:1"/><stop offset="1" style="stop-color:rgb(179,179,179);stop-opacity:1"/></linearGradient>
    </defs>
</svg>
