<svg xmlns="http://www.w3.org/2000/svg" xmlns:osb="http://www.openswatchbook.org/uri/2009/osb" xmlns:xlink="http://www.w3.org/1999/xlink" width="105.011" height="100.332" viewBox="70 20 105.011 100.332"><defs><linearGradient xlink:href="#a" id="j" x1="112.527" x2="112.534" y1="228.708" y2="299.537" gradientTransform="translate(108.989 -497.212)" gradientUnits="userSpaceOnUse"/><linearGradient id="a"><stop offset="0" style="stop-color:#0e2a43;stop-opacity:1"/><stop offset="1" style="stop-color:#081622;stop-opacity:1"/></linearGradient><linearGradient xlink:href="#b" id="k" x1="8563.618" x2="10211.106" y1="-3940.793" y2="-3940.793" gradientTransform="matrix(.0418 0 0 .0418 -170.865 -43.242)" gradientUnits="userSpaceOnUse"/><linearGradient osb:paint="solid" id="b"><stop offset="0" style="stop-color:#fdfeff;stop-opacity:1"/></linearGradient><linearGradient xlink:href="#c" id="l" x1="47.618" x2="80.911" y1="179.624" y2="179.624" gradientTransform="translate(173.899 -432.468)" gradientUnits="userSpaceOnUse"/><linearGradient id="c"><stop offset="0" style="stop-color:#ebebeb;stop-opacity:1"/><stop offset="1" style="stop-color:#c9c9c9;stop-opacity:1"/></linearGradient><linearGradient xlink:href="#d" id="m" x1="14.324" x2="47.619" y1="179.624" y2="179.624" gradientTransform="translate(173.899 -432.468)" gradientUnits="userSpaceOnUse"/><linearGradient id="d"><stop offset="0" style="stop-color:#c9c9c9;stop-opacity:1"/><stop offset="1" style="stop-color:#ebebeb;stop-opacity:1"/></linearGradient><linearGradient xlink:href="#e" id="n" x1="14.192" x2="47.757" y1="221.996" y2="221.996" gradientTransform="translate(173.899 -432.468)" gradientUnits="userSpaceOnUse"/><linearGradient id="e"><stop offset="0" style="stop-color:#ebebeb;stop-opacity:1"/><stop offset="1" style="stop-color:#c8c8c8;stop-opacity:1"/></linearGradient><linearGradient xlink:href="#f" id="o" x1="-164.806" x2="-38.945" y1="-566.094" y2="-566.094" gradientTransform="matrix(.26458 0 0 .26458 265.129 -78.966)" gradientUnits="userSpaceOnUse"/><linearGradient id="f"><stop offset="0" style="stop-color:#c8c8c8;stop-opacity:1"/><stop offset="1" style="stop-color:#ebebeb;stop-opacity:1"/></linearGradient><linearGradient xlink:href="#g" id="p" x1="9349.612" x2="9349.622" y1="-5237.708" y2="-4576.865" gradientTransform="matrix(.0418 0 0 .0418 -170.876 -41.864)" gradientUnits="userSpaceOnUse"/><linearGradient id="g"><stop offset="0" style="stop-color:#effe09;stop-opacity:1"/><stop offset="1" style="stop-color:#ee9402;stop-opacity:1"/></linearGradient><linearGradient xlink:href="#h" id="q" x1="9589.091" x2="9588.91" y1="-4612.539" y2="-3030.431" gradientTransform="matrix(.0418 0 0 -.0418 -179.297 -393.77)" gradientUnits="userSpaceOnUse"/><linearGradient id="h"><stop offset="0" style="stop-color:#09fefe;stop-opacity:1"/><stop offset="1" style="stop-color:#b7fe28;stop-opacity:1"/></linearGradient><linearGradient xlink:href="#h" id="r" x1="9589.092" x2="9588.91" y1="-4612.4" y2="-3030.292" gradientTransform="matrix(.0418 0 0 -.0418 -179.297 -393.764)" gradientUnits="userSpaceOnUse"/><linearGradient xlink:href="#i" id="v" x1="9588.91" x2="9589.091" y1="-4682.335" y2="-3100.227" gradientTransform="matrix(.0418 0 0 .0418 -179.297 -71.378)" gradientUnits="userSpaceOnUse"/><linearGradient id="i"><stop offset="0" style="stop-color:#b7fe28;stop-opacity:1"/><stop offset="1" style="stop-color:#09fefe;stop-opacity:1"/></linearGradient><linearGradient xlink:href="#i" id="x" x1="9597.891" x2="9598.071" y1="-4682.335" y2="-3100.227" gradientTransform="matrix(.0418 0 0 .0418 -179.673 -71.378)" gradientUnits="userSpaceOnUse"/><linearGradient xlink:href="#i" id="z" x1="9610.077" x2="9610.258" y1="-4682.335" y2="-3100.227" gradientTransform="matrix(.0418 0 0 .0418 -180.182 -71.378)" gradientUnits="userSpaceOnUse"/><linearGradient xlink:href="#i" id="s" x1="9588.91" x2="9589.091" y1="-4682.335" y2="-3100.227" gradientTransform="matrix(.0418 0 0 .0418 -179.297 -71.378)" gradientUnits="userSpaceOnUse"/><linearGradient xlink:href="#i" id="t" x1="9588.91" x2="9589.091" y1="-4682.335" y2="-3100.227" gradientTransform="matrix(.0418 0 0 .0418 -179.297 -71.378)" gradientUnits="userSpaceOnUse"/><linearGradient xlink:href="#i" id="u" x1="9588.91" x2="9589.091" y1="-4682.335" y2="-3100.227" gradientTransform="matrix(.0418 0 0 .0418 -179.297 -71.378)" gradientUnits="userSpaceOnUse"/><linearGradient xlink:href="#i" id="w" x1="9597.891" x2="9598.071" y1="-4682.335" y2="-3100.227" gradientTransform="matrix(.0418 0 0 .0418 -179.673 -71.378)" gradientUnits="userSpaceOnUse"/><linearGradient xlink:href="#i" id="y" x1="9610.077" x2="9610.258" y1="-4682.335" y2="-3100.227" gradientTransform="matrix(.0418 0 0 .0418 -180.182 -71.378)" gradientUnits="userSpaceOnUse"/></defs><path d="m221.517-268.504.007 70.828zl-30.533 19.917-.25 16.392-.064 3.45-.163 12.073 31.017 18.996 31.018-18.996-.224-12.073-.014-3.45-.254-16.393z" style="font-style:normal;font-variant:normal;font-weight:400;font-stretch:normal;font-size:medium;line-height:1.2;font-family:&quot;Copperplate Gothic Bold&quot;;-inkscape-font-specification:&quot;Copperplate Gothic Bold, &quot;;text-align:center;letter-spacing:4.36943px;word-spacing:0;text-anchor:middle;opacity:1;fill:url(#j);fill-opacity:1;stroke:none;stroke-width:.190926px;stroke-linecap:butt;stroke-linejoin:miter;stroke-miterlimit:4;stroke-dasharray:none;stroke-opacity:1" transform="matrix(1.09897 0 0 1.09897 -120.93 326.045)"/><path d="m221.516-278.483-34.228 25.691 3.446 20.597.249-16.392 30.533-19.917 30.533 19.917.253 16.392 3.442-20.597z" style="font-style:normal;font-variant:normal;font-weight:400;font-stretch:normal;font-size:medium;line-height:1.2;font-family:&quot;Copperplate Gothic Bold&quot;;-inkscape-font-specification:&quot;Copperplate Gothic Bold, &quot;;text-align:center;letter-spacing:4.36943px;word-spacing:0;text-anchor:middle;fill:#fff;fill-opacity:1;stroke:none;stroke-width:.392133;stroke-miterlimit:4;stroke-dasharray:none;stroke-opacity:1;paint-order:markers stroke fill" transform="matrix(1.09897 0 0 1.09897 -120.93 326.045)"/><path d="m190.67-228.745-3.578 13.999 34.432 27.56 34.432-27.56-3.639-13.999.224 12.073-31.017 18.996-31.017-18.996z" style="font-style:normal;font-variant:normal;font-weight:400;font-stretch:normal;font-size:medium;line-height:1.2;font-family:&quot;Copperplate Gothic Bold&quot;;-inkscape-font-specification:&quot;Copperplate Gothic Bold, &quot;;text-align:center;letter-spacing:4.36943px;word-spacing:0;text-anchor:middle;fill:url(#k);fill-opacity:1;stroke:none;stroke-width:.388122;stroke-miterlimit:4;stroke-dasharray:none;stroke-opacity:1;paint-order:markers stroke fill" transform="matrix(1.09897 0 0 1.09897 -120.93 326.045)"/><path d="m221.516-273.494 32.38 22.805-1.593 18.494-.254-16.392-30.533-19.917z" style="font-style:normal;font-variant:normal;font-weight:400;font-stretch:normal;font-size:medium;line-height:1.2;font-family:&quot;Copperplate Gothic Bold&quot;;-inkscape-font-specification:&quot;Copperplate Gothic Bold, &quot;;text-align:center;letter-spacing:4.36943px;word-spacing:0;text-anchor:middle;fill:url(#l);fill-opacity:1;stroke:none;stroke-width:.264583px;stroke-linecap:butt;stroke-linejoin:miter;stroke-miterlimit:4;stroke-dasharray:none;stroke-opacity:1" transform="matrix(1.09897 0 0 1.09897 -120.93 326.045)"/><path d="m221.517-273.494-32.38 22.805 1.598 18.494.248-16.392 30.533-19.917z" style="font-style:normal;font-variant:normal;font-weight:400;font-stretch:normal;font-size:medium;line-height:1.2;font-family:&quot;Copperplate Gothic Bold&quot;;-inkscape-font-specification:&quot;Copperplate Gothic Bold, &quot;;text-align:center;letter-spacing:4.36943px;word-spacing:0;text-anchor:middle;fill:url(#m);fill-opacity:1;stroke:none;stroke-width:.264583px;stroke-linecap:butt;stroke-linejoin:miter;stroke-miterlimit:4;stroke-dasharray:none;stroke-opacity:1" transform="matrix(1.09897 0 0 1.09897 -120.93 326.045)"/><path d="m221.524-192.431-32.725-23.278 1.871-13.036-.164 12.073 31.017 18.997z" style="font-style:normal;font-variant:normal;font-weight:400;font-stretch:normal;font-size:medium;line-height:1.2;font-family:&quot;Copperplate Gothic Bold&quot;;-inkscape-font-specification:&quot;Copperplate Gothic Bold, &quot;;text-align:center;letter-spacing:4.36943px;word-spacing:0;text-anchor:middle;opacity:1;fill:url(#n);fill-opacity:1;stroke:none;stroke-width:.264583px;stroke-linecap:butt;stroke-linejoin:miter;stroke-miterlimit:4;stroke-dasharray:none;stroke-opacity:1" transform="matrix(1.09897 0 0 1.09897 -120.93 326.045)"/><path d="m221.523-192.431 32.725-23.278-1.93-13.036.223 12.073-31.017 18.997z" style="font-style:normal;font-variant:normal;font-weight:400;font-stretch:normal;font-size:medium;line-height:1.2;font-family:&quot;Copperplate Gothic Bold&quot;;-inkscape-font-specification:&quot;Copperplate Gothic Bold, &quot;;text-align:center;letter-spacing:4.36943px;word-spacing:0;text-anchor:middle;fill:url(#o);fill-opacity:1;stroke:none;stroke-width:.264583px;stroke-linecap:butt;stroke-linejoin:miter;stroke-miterlimit:4;stroke-dasharray:none;stroke-opacity:1" transform="matrix(1.09897 0 0 1.09897 -120.93 326.045)"/><path d="M190.507-217.82q31.017 12.168 62.034 0" style="fill:none;stroke:none;stroke-width:.264583px;stroke-linecap:butt;stroke-linejoin:miter;stroke-opacity:1" transform="matrix(1.09897 0 0 1.09897 -120.93 326.045)"/><path d="m222.911-260.89.006 5.176 7.167 4.642v21.188l6.285 2.676-.094-20.631 6.476 3.76-.01-4.843zm-2.976.091-20.002 12.21v21.378l6.636.007 5.977-2.68 7.39-3.292-.007-16.497-11.078 5.734.006 4.957 5.15-2.379-.06 6-9.365 4.23.023-15.844 9.342-5.203-.007 3.094 5.993-3.196z" style="fill:url(#p);fill-opacity:1;stroke-width:.392133;stroke-miterlimit:4;stroke-dasharray:none" transform="matrix(1.09897 0 0 1.09897 -120.93 326.045)"/><path d="m191.838-217.31 5.765 3.62-4.785-4.23-.98-5.887z" style="font-style:normal;font-variant:normal;font-weight:400;font-stretch:normal;font-size:medium;line-height:1.2;font-family:&quot;Copperplate Gothic Bold&quot;;-inkscape-font-specification:&quot;Copperplate Gothic Bold, &quot;;text-align:center;letter-spacing:4.36943px;word-spacing:0;text-anchor:middle;fill:url(#q);fill-opacity:1;stroke:none;stroke-width:.381155;stroke-miterlimit:4;stroke-dasharray:none;stroke-opacity:1" transform="matrix(1.09897 0 0 1.09897 -120.93 326.045)"/><path d="m251.194-217.304-5.765 3.62 4.785-4.23.98-5.888z" style="font-style:normal;font-variant:normal;font-weight:400;font-stretch:normal;font-size:medium;line-height:1.2;font-family:&quot;Copperplate Gothic Bold&quot;;-inkscape-font-specification:&quot;Copperplate Gothic Bold, &quot;;text-align:center;letter-spacing:4.36943px;word-spacing:0;text-anchor:middle;fill:url(#r);fill-opacity:1;stroke:none;stroke-width:.381155;stroke-miterlimit:4;stroke-dasharray:none;stroke-opacity:1" transform="matrix(1.09897 0 0 1.09897 -120.93 326.045)"/><path d="m221.516-267.098-8.026 4.926 8.026-3.313 8.026 3.313z" style="font-style:normal;font-variant:normal;font-weight:400;font-stretch:normal;font-size:medium;line-height:1.2;font-family:&quot;Copperplate Gothic Bold&quot;;-inkscape-font-specification:&quot;Copperplate Gothic Bold, &quot;;text-align:center;letter-spacing:4.36943px;word-spacing:0;text-anchor:middle;fill:url(#s);fill-opacity:1;stroke:none;stroke-width:.392133;stroke-miterlimit:4;stroke-dasharray:none;stroke-opacity:1;paint-order:markers stroke fill" transform="matrix(1.09897 0 0 1.09897 -120.93 326.045)"/><path d="m191.838-247.838 5.765-3.62-4.785 4.23-.98 5.888z" style="font-style:normal;font-variant:normal;font-weight:400;font-stretch:normal;font-size:medium;line-height:1.2;font-family:&quot;Copperplate Gothic Bold&quot;;-inkscape-font-specification:&quot;Copperplate Gothic Bold, &quot;;text-align:center;letter-spacing:4.36943px;word-spacing:0;text-anchor:middle;fill:url(#t);fill-opacity:1;stroke:none;stroke-width:.381155;stroke-miterlimit:4;stroke-dasharray:none;stroke-opacity:1" transform="matrix(1.09897 0 0 1.09897 -120.93 326.045)"/><path d="m251.194-247.838-5.765-3.62 4.785 4.23.98 5.888z" style="font-style:normal;font-variant:normal;font-weight:400;font-stretch:normal;font-size:medium;line-height:1.2;font-family:&quot;Copperplate Gothic Bold&quot;;-inkscape-font-specification:&quot;Copperplate Gothic Bold, &quot;;text-align:center;letter-spacing:4.36943px;word-spacing:0;text-anchor:middle;fill:url(#u);fill-opacity:1;stroke:none;stroke-width:.381155;stroke-miterlimit:4;stroke-dasharray:none;stroke-opacity:1" transform="matrix(1.09897 0 0 1.09897 -120.93 326.045)"/><path d="m211.475-205.049 10.049 5.78 10.048-5.78-10.048 4.082z" style="font-style:normal;font-variant:normal;font-weight:400;font-stretch:normal;font-size:medium;line-height:1.2;font-family:&quot;Copperplate Gothic Bold&quot;;-inkscape-font-specification:&quot;Copperplate Gothic Bold, &quot;;text-align:center;letter-spacing:4.36943px;word-spacing:0;text-anchor:middle;fill:url(#v);fill-opacity:1;stroke:none;stroke-width:.392133;stroke-miterlimit:4;stroke-dasharray:none;stroke-opacity:1;paint-order:markers stroke fill" transform="matrix(1.09897 0 0 1.09897 -120.93 326.045)"/><path d="m184.142-254.017 13.887-8.62-12.06 9.342.084 6.328z" style="font-style:normal;font-variant:normal;font-weight:400;font-stretch:normal;font-size:medium;line-height:1.2;font-family:&quot;Copperplate Gothic Bold&quot;;-inkscape-font-specification:&quot;Copperplate Gothic Bold, &quot;;text-align:center;letter-spacing:4.36943px;word-spacing:0;text-anchor:middle;fill:url(#w);fill-opacity:1;stroke:none;stroke-width:.392133;stroke-miterlimit:4;stroke-dasharray:none;stroke-opacity:1" transform="matrix(1.09897 0 0 1.09897 -120.93 326.045)"/><path d="m258.89-254.017-13.887-8.62 12.06 9.342-.084 6.328z" style="font-style:normal;font-variant:normal;font-weight:400;font-stretch:normal;font-size:medium;line-height:1.2;font-family:&quot;Copperplate Gothic Bold&quot;;-inkscape-font-specification:&quot;Copperplate Gothic Bold, &quot;;text-align:center;letter-spacing:4.36943px;word-spacing:0;text-anchor:middle;fill:url(#x);fill-opacity:1;stroke:none;stroke-width:.392133;stroke-miterlimit:4;stroke-dasharray:none;stroke-opacity:1" transform="matrix(1.09897 0 0 1.09897 -120.93 326.045)"/><path d="m177.43-212.684 2.899 11.041h12.676l-4.369-5.491 4.369-5.491z" style="opacity:.697;fill:#166bd2;fill-opacity:1;stroke:none;stroke-width:.258301px;stroke-linecap:butt;stroke-linejoin:miter;stroke-opacity:1" transform="matrix(-1.09897 0 0 1.09897 282.107 309.658)"/><path d="m186.695-199.853-2.196-11.041-7.068-1.79 2.898 11.041z" style="opacity:.697;fill:#166bd2;fill-opacity:1;stroke:none;stroke-width:.258301px;stroke-linecap:butt;stroke-linejoin:miter;stroke-opacity:1" transform="matrix(-1.09897 0 0 1.09897 282.107 309.658)"/><path d="m182.37-212.17 1.998-8.906.507 7.25 20.129 15.627z" style="font-style:normal;font-variant:normal;font-weight:400;font-stretch:normal;font-size:medium;line-height:1.2;font-family:&quot;Copperplate Gothic Bold&quot;;-inkscape-font-specification:&quot;Copperplate Gothic Bold, &quot;;text-align:center;letter-spacing:4.36943px;word-spacing:0;text-anchor:middle;fill:url(#y);fill-opacity:1;stroke:none;stroke-width:.392133;stroke-miterlimit:4;stroke-dasharray:none;stroke-opacity:1" transform="matrix(1.09897 0 0 1.09897 -120.93 326.045)"/><path d="m253.716-227.595 2.898 11.041h12.676l-4.369-5.491 4.369-5.491z" style="opacity:.697;fill:#166bd2;fill-opacity:1;stroke:none;stroke-width:.258301px;stroke-linecap:butt;stroke-linejoin:miter;stroke-opacity:1" transform="matrix(1.09897 0 0 1.09897 -120.93 326.045)"/><path d="m262.98-214.764-2.196-11.041-7.068-1.79 2.898 11.041z" style="opacity:.697;fill:#166bd2;fill-opacity:1;stroke:none;stroke-width:.258301px;stroke-linecap:butt;stroke-linejoin:miter;stroke-opacity:1" transform="matrix(1.09897 0 0 1.09897 -120.93 326.045)"/><path d="m260.678-212.17-1.999-8.906-.507 7.25-20.129 15.627z" style="font-style:normal;font-variant:normal;font-weight:400;font-stretch:normal;font-size:medium;line-height:1.2;font-family:&quot;Copperplate Gothic Bold&quot;;-inkscape-font-specification:&quot;Copperplate Gothic Bold, &quot;;text-align:center;letter-spacing:4.36943px;word-spacing:0;text-anchor:middle;fill:url(#z);fill-opacity:1;stroke:none;stroke-width:.392133;stroke-miterlimit:4;stroke-dasharray:none;stroke-opacity:1" transform="matrix(1.09897 0 0 1.09897 -120.93 326.045)"/><g style="opacity:.697;fill:#1669d2;fill-opacity:1;stroke:none;stroke-width:.923402;stroke-miterlimit:4;stroke-dasharray:none;stroke-opacity:1;paint-order:markers stroke fill"><path d="m48.679 192 5.366-26h191.91l5.366 26z" style="fill:#1669d2;fill-opacity:1;stroke:none;stroke-width:.923402;stroke-miterlimit:4;stroke-dasharray:none;stroke-opacity:1;paint-order:markers stroke fill" transform="matrix(.44977 0 0 .46669 55.04 .421)"/></g><g aria-label="TOURNAMENT" style="font-style:normal;font-variant:normal;font-weight:400;font-stretch:normal;font-size:86.6667px;line-height:1.2;font-family:&quot;Copperplate Gothic Bold&quot;;-inkscape-font-specification:&quot;Copperplate Gothic Bold, &quot;;text-align:center;letter-spacing:4.36943px;word-spacing:0;text-anchor:middle;fill:#fdfeff;fill-opacity:1;stroke:#fdfeff;stroke-width:4.01646;stroke-miterlimit:4;stroke-dasharray:none;stroke-opacity:1"><path d="M385.02 582.436v-56.367h-20.862v-6.264h50.104v6.264H393.4v56.367zM445.884 584.001q-11.34 0-17.434-9.267-6.052-9.268-6.052-23.613 0-14.388 6.094-23.614 6.094-9.267 17.392-9.267 11.342 0 17.393 9.267 6.094 9.226 6.094 23.614 0 14.345-6.094 23.613Q457.226 584 445.884 584zm0-6.263q7.11 0 10.876-6.601 3.766-6.602 3.766-20.059 0-13.414-3.766-19.974-3.766-6.601-10.876-6.601-7.067 0-10.833 6.601-3.766 6.56-3.766 19.974 0 13.457 3.724 20.059 3.766 6.601 10.875 6.601zM482.923 519.805h8.337v41.556q0 7.448 1.48 10.453 1.524 2.962 4.021 4.443 2.539 1.481 6.051 1.481 5.12 0 8.59-3.089 3.513-3.131 3.513-13.5v-41.344h7.279v40.118q0 6.77-.72 10.198-1.184 5.586-5.966 9.733-4.74 4.147-12.61 4.147-9.395 0-14.728-5.374-2.708-2.75-3.935-6.475-.804-2.454-1.058-4.781-.254-2.328-.254-6.136zM540.91 582.436v-62.63H556.1q8.802 0 12.695 1.65t6.094 5.459q2.243 3.766 2.243 8.125 0 4.528-2.581 9.437-2.54 4.909-10.03 8.717l19.509 29.242h-10.114l-17.139-26.787h-7.532v26.787zm8.336-33.05h4.4q7.237 0 10.919-4.063 3.681-4.105 3.681-9.606 0-2.92-1.227-5.078-1.185-2.158-3.808-3.343-2.624-1.227-8.845-1.227h-5.12zM596.06 582.436v-62.63h7.87l24.926 47.65h.085v-47.65h6.813v62.63h-7.702l-25.095-47.946h-.126v47.946zM646.979 582.436l21.412-62.63h8.337l21.413 62.63h-8.845l-6.051-17.731h-23.02l-6.052 17.73zm15.361-24.037h18.79l-9.395-27.422zM707.123 582.436v-62.63h10.03l11.933 35.631h.084l11.722-35.632h10.453v62.63h-6.813v-54.97h-.085l-12.23 38.255h-7.025l-12.187-37.24h-.085v53.956zM768.96 582.436v-62.63h36.69v6.263h-28.354v20.1h24.037v6.263h-24.037v23.74h30.3v6.264zM822.756 582.436v-62.63h7.871l24.925 47.65h.085v-47.65h6.813v62.63h-7.702l-25.094-47.946h-.127v47.946zM895.088 582.436v-56.367h-20.863v-6.264h50.104v6.264h-20.862v56.367z" style="font-style:normal;font-variant:normal;font-weight:400;font-stretch:semi-condensed;font-family:&quot;Lucida Sans Typewriter&quot;;-inkscape-font-specification:&quot;Lucida Sans Typewriter Semi-Condensed&quot;;letter-spacing:4.36943px;fill:#fdfeff;fill-opacity:1;stroke:#fdfeff;stroke-width:4.01646;stroke-miterlimit:4;stroke-dasharray:none;stroke-opacity:1" transform="matrix(.10166 0 0 .11323 57.09 21.697)"/></g></svg>