<svg xmlns="http://www.w3.org/2000/svg" width="341.387" height="215.147"><path d="m143.68 118.284 8.83 5.252h-2.793l-8.115-3.654-8.257 3.654h-2.634l8.894-5.252zm4.287-28.404c3.869 1.242 6.743 3.415 7.13 6.461 0 4.299-5.03 6.019-9.981 7.042-7.187 1.433-12.298 2.619-13.096 5.731a2.6 2.6 0 0 0-.162.983c.162 3.357 4.874 5.443 9.187 5.443 4.391 0 7.184-.57 9.978-3.193l2.397.78c-3.112 2.782-7.346 3.521-12.375 3.521-4.183 0-7.752-.702-10.334-1.958v8.846h-6.371l-16.231-21.064h-.155L91.41 123.536h-6.212V97.734h3.03v22.535l18.189-22.979h-5.598V71.487h2.567v22.538l18.408-23.255h.076l18.564 23.573V71.487h5.435v17.155h9.609V64.577h5.59v24.065h11.575v1.238zm-2.098 1.485v5.925H139.5l-5.208-6.76c-2.162.561-4.08 1.547-5.546 3.027l-2.637-.984c1.69-1.631 4.231-2.724 7.189-3.334L123.27 76.227h-.156L106.75 97.065l18.521 23.525V97.734h5.44v6.278c2.871-1.152 6.808-1.89 10.811-2.799 5.911-1.27 7.666-3.52 7.666-5.69 0-1.674-1.2-3.146-3.319-4.158" style="fill:#498f9a;fill-opacity:1;fill-rule:nonzero;stroke:none;stroke-width:.1" transform="matrix(1.33333 0 0 -1.33333 0 215.147)"/><path d="M38.595 58.093h1.298l3.441-7.394 3.488 7.394h1.196v-8.148h-.8l.03 7.446-3.45-7.446h-.938l-3.542 7.446.078-7.446h-.8zM51.132 58.093h.812v-8.147h-.812zM55.048 58.093h1.039l5.698-7.312v7.312h.79v-8.148H61.49l-5.653 7.312v-7.312h-.79zM65.69 58.093h.811v-8.147h-.812zM70.124 52.629v-.043c0-1.23 1.005-2.055 2.584-2.055 1.592 0 2.528.677 2.528 1.669 0 .928-.655 1.163-2.033 1.412l-1.737.304c-1.298.226-1.93.903-1.93 2.03 0 1.4 1.151 2.358 3.104 2.358 1.987 0 3.16-.946 3.204-2.502h-.812c-.102 1.139-.914 1.758-2.37 1.758-1.445 0-2.29-.63-2.29-1.569 0-.855.666-1.149 2.03-1.385l1.547-.272c1.478-.26 2.143-.891 2.143-2.1 0-1.557-1.206-2.504-3.306-2.504-2.189 0-3.487 1.083-3.487 2.776v.123zM81.057 57.347H77.91v.746h7.109v-.746H81.87v-7.4h-.813zM87.127 58.093h6.264v-.758h-5.45V54.48h5.032v-.766h-5.032v-3h5.45v-.768h-6.264zM96.009 58.093h3.906c1.939 0 2.922-.735 2.922-2.191 0-1.071-.429-1.704-1.411-2.03.926-.148 1.14-.577 1.253-1.548.124-1.082.056-1.906.395-2.38h-.949c-.248.745-.18 1.557-.282 2.38-.101.838-.576 1.119-1.591 1.119h-3.43v-3.498h-.813Zm.814-.758V54.21h3c1.502 0 2.19.42 2.19 1.568 0 1.209-.722 1.558-2.291 1.558zM106.2 52.629v-.043c0-1.23 1.003-2.055 2.584-2.055 1.589 0 2.527.677 2.527 1.669 0 .928-.654 1.163-2.032 1.412l-1.737.304c-1.298.226-1.93.903-1.93 2.03 0 1.4 1.151 2.358 3.103 2.358 1.986 0 3.161-.946 3.204-2.502h-.812c-.101 1.139-.913 1.758-2.369 1.758-1.445 0-2.29-.63-2.29-1.569 0-.855.666-1.149 2.03-1.385l1.547-.272c1.477-.26 2.143-.891 2.143-2.1 0-1.557-1.206-2.504-3.306-2.504-2.189 0-3.485 1.083-3.485 2.776v.123zM117.133 57.347h-3.149v.746h7.109v-.746h-3.148v-7.4h-.812zM122.302 58.093h.891l3.272-7.449 3.271 7.449h.894l-3.657-8.148h-1.027zM136.441 49.73c-2.674 0-4.276 1.635-4.276 4.29 0 2.65 1.602 4.285 4.276 4.285 2.675 0 4.288-1.636 4.288-4.285 0-2.655-1.613-4.29-4.288-4.29m3.453 4.29c0 2.186-1.298 3.497-3.453 3.497s-3.453-1.311-3.453-3.497c0-2.192 1.298-3.5 3.453-3.5s3.453 1.308 3.453 3.5M148.685 52.629v-.043c0-1.23 1.003-2.055 2.583-2.055 1.592 0 2.527.677 2.527 1.669 0 .928-.654 1.163-2.029 1.412l-1.739.304c-1.297.226-1.928.903-1.928 2.03 0 1.4 1.15 2.358 3.103 2.358 1.985 0 3.158-.946 3.204-2.502h-.812c-.104 1.139-.915 1.758-2.371 1.758-1.444 0-2.291-.63-2.291-1.569 0-.855.666-1.149 2.032-1.385l1.546-.272c1.479-.26 2.144-.891 2.144-2.1 0-1.557-1.207-2.504-3.307-2.504-2.19 0-3.486 1.083-3.486 2.776v.123zm3.689 7.956h.87l-1.57-1.67h-.924l-1.569 1.67h.868l1.163-1.207zM157.406 58.093h.814v-4.459l5.043 4.459h1.129l-3.837-3.41 3.837-4.738h-1.038l-3.408 4.208-1.726-1.512v-2.696h-.814zM170.045 49.73c-2.674 0-4.275 1.635-4.275 4.29 0 2.65 1.601 4.285 4.275 4.285 2.676 0 4.288-1.636 4.288-4.285 0-2.655-1.612-4.29-4.288-4.29m3.453 4.29c0 2.186-1.299 3.497-3.453 3.497s-3.452-1.311-3.452-3.497c0-2.192 1.297-3.5 3.452-3.5 2.154 0 3.453 1.308 3.453 3.5M176.985 58.093h.813v-7.38h5.124v-.768h-5.937zM185.843 52.629v-.043c0-1.23 1.006-2.055 2.585-2.055 1.591 0 2.528.677 2.528 1.669 0 .928-.654 1.163-2.032 1.412l-1.736.304c-1.299.226-1.931.903-1.931 2.03 0 1.4 1.15 2.358 3.102 2.358 1.987 0 3.162-.946 3.204-2.502h-.811c-.102 1.139-.914 1.758-2.37 1.758-1.444 0-2.29-.63-2.29-1.569 0-.855.665-1.149 2.031-1.385l1.546-.272c1.478-.26 2.144-.891 2.144-2.1 0-1.557-1.207-2.504-3.305-2.504-2.191 0-3.488 1.083-3.488 2.776v.123zM196.778 57.347h-3.148v.746h7.108v-.746h-3.147v-7.4h-.813zM201.946 58.093h.892l3.272-7.449 3.273 7.449h.89l-3.657-8.148h-1.026zM212.474 58.093h.812v-8.147h-.812zm1.061 2.492h1.028l-1.333-1.67h-.666zM216.806 50.94h.915v-1.324c0-.79-.203-1.196-.915-1.433v.52c.306.158.407.384.407.756v.487h-.407zM52.386 45.44h1.075l2.858-6.138 2.894 6.137h.994v-6.765h-.668l.03 6.183-2.866-6.183h-.779l-2.94 6.183.064-6.183h-.663zM62.557 45.44h.675v-6.128h4.252v-.638h-4.927zM71.69 45.44h.777l3.082-6.766h-.684l-.945 2.09h-3.7l-.957-2.09h-.694zm1.93-4.02-1.546 3.454-1.555-3.455zm-1.03 6.088h.853l-1.106-1.387h-.554zM82.415 44.827c.75-.579 1.087-1.488 1.087-2.771s-.337-2.193-1.087-2.775c-.693-.532-1.563-.607-2.773-.607h-2.463v6.765h2.463c1.21 0 2.08-.076 2.773-.612m-4.563 0v-5.506h1.79c.967 0 1.668.065 2.22.431.666.44.947 1.2.947 2.351 0 1.124-.3 1.874-.947 2.303-.57.375-1.32.421-2.37.421zM85.516 45.44h5.198v-.63H86.19v-2.37h4.178v-.638H86.19v-2.49h4.524v-.638h-5.198zM92.203 39.34l4.974 5.47h-4.729v.63h5.667v-.63l-5.069-5.47h5.068v-.666h-5.91zm4.299 8.168h.722l-1.3-1.386h-.77l-1.302 1.386h.722l.965-1.003zM99.969 45.44h5.198v-.63h-4.523v-2.37h4.177v-.638h-4.177v-2.49h4.523v-.638h-5.198zM113.335 45.44h.777l3.082-6.766h-.683l-.945 2.09h-3.702l-.954-2.09h-.695zm1.93-4.02-1.545 3.454-1.555-3.455zM124.445 44.82h-2.614v.62h5.902v-.62h-2.614v-6.146h-.674zM129.298 45.44h5.199v-.63h-4.525v-2.37h4.176v-.638h-4.176v-2.49h4.525v-.638h-5.199zm3.615 2.068h.723l-1.303-1.387h-.768l-1.302 1.387h.719l.966-1.004zM136.483 45.44h.674v-6.128h4.251v-.638h-4.925zM145.746 38.496c-2.221 0-3.55 1.36-3.55 3.56s1.329 3.559 3.55 3.559c2.219 0 3.559-1.36 3.559-3.56s-1.34-3.559-3.559-3.559m2.866 3.56c0 1.817-1.077 2.904-2.866 2.904s-2.866-1.087-2.866-2.905c0-1.816 1.077-2.903 2.866-2.903s2.866 1.087 2.866 2.903M150.393 45.44h.738l2.719-6.184 2.713 6.183h.743l-3.035-6.765h-.854zM161.127 41.597l-2.914 3.842h.861l2.39-3.3 2.415 3.3h.836l-2.913-3.842v-2.923h-.675zm.983 5.91h.852l-1.105-1.386h-.554zM169.594 44.96c-1.772 0-2.857-1.097-2.857-2.904 0-1.789 1.085-2.895 2.725-2.895 1.36 0 2.397.787 2.67 2.052h.722c-.309-1.667-1.602-2.717-3.372-2.717-2.072 0-3.429 1.386-3.429 3.56 0 2.201 1.329 3.558 3.551 3.558 1.76 0 2.921-.907 3.137-2.387h-.683c-.263 1.105-1.143 1.733-2.464 1.733M174.718 45.44h.675v-2.822h4.402v2.821h.674v-6.765h-.674v3.298h-4.402v-3.298h-.675zM186.043 38.496c-2.222 0-3.551 1.36-3.551 3.56s1.329 3.559 3.551 3.559c2.219 0 3.559-1.36 3.559-3.56s-1.34-3.559-3.559-3.559m2.866 3.56c0 1.817-1.076 2.904-2.866 2.904-1.789 0-2.866-1.087-2.866-2.905 0-1.816 1.077-2.903 2.866-2.903s2.866 1.087 2.866 2.903M190.688 45.44h.741l2.717-6.184 2.716 6.183h.74l-3.036-6.765h-.852zM201.424 41.597l-2.914 3.842h.861l2.389-3.3 2.418 3.3h.834l-2.914-3.842v-2.923h-.674z" style="fill:#fff;fill-opacity:1;fill-rule:nonzero;stroke:none;stroke-width:.1" transform="matrix(1.33333 0 0 -1.33333 0 215.147)"/></svg>