<?xml version="1.0" encoding="UTF-8" standalone="no"?>
<!-- Created with Inkscape (http://www.inkscape.org/) -->

<svg
   version="1.1"
   id="svg2"
   width="341.38666"
   height="215.14667"
   viewBox="0 0 341.38666 215.14667"
   sodipodi:docname="MSMT_logotyp_text_inverz_cz.svg"
   inkscape:version="1.2.2 (b0a8486541, 2022-12-01)"
   xmlns:inkscape="http://www.inkscape.org/namespaces/inkscape"
   xmlns:sodipodi="http://sodipodi.sourceforge.net/DTD/sodipodi-0.dtd"
   xmlns="http://www.w3.org/2000/svg"
   xmlns:svg="http://www.w3.org/2000/svg">
  <defs
     id="defs6" />
  <sodipodi:namedview
     id="namedview4"
     pagecolor="#ffffff"
     bordercolor="#000000"
     borderopacity="0.25"
     inkscape:showpageshadow="2"
     inkscape:pageopacity="0.0"
     inkscape:pagecheckerboard="0"
     inkscape:deskcolor="#d1d1d1"
     showgrid="false"
     inkscape:zoom="1.9800446"
     inkscape:cx="211.10635"
     inkscape:cy="164.39023"
     inkscape:window-width="1920"
     inkscape:window-height="1016"
     inkscape:window-x="1920"
     inkscape:window-y="0"
     inkscape:window-maximized="1"
     inkscape:current-layer="g10">
    <inkscape:page
       x="0"
       y="0"
       id="page8"
       width="341.38666"
       height="215.14667" />
  </sodipodi:namedview>
  <g
     id="g10"
     inkscape:groupmode="layer"
     inkscape:label="Page 1"
     transform="matrix(1.3333333,0,0,-1.3333333,0,215.14667)">
    <path
       d="m 143.68,118.284 8.83,5.252 h -2.793 l -8.115,-3.654 -8.257,3.654 h -2.634 l 8.894,-5.252 z m 4.287,-28.4039 c 3.869,1.2414 6.743,3.4152 7.13,6.4609 0,4.299 -5.03,6.019 -9.981,7.042 -7.187,1.433 -12.298,2.619 -13.096,5.731 -0.147,0.433 -0.162,0.656 -0.162,0.983 0.162,3.357 4.874,5.443 9.187,5.443 4.391,0 7.184,-0.57 9.978,-3.193 l 2.397,0.78 c -3.112,2.782 -7.346,3.521 -12.375,3.521 -4.183,0 -7.752,-0.702 -10.334,-1.958 v 8.846 h -6.371 l -16.231,-21.064 h -0.155 L 91.4102,123.536 H 85.198 V 97.7336 h 3.0293 V 120.269 L 106.417,97.2902 h -5.598 V 71.4875 h 2.567 v 22.5371 l 18.408,-23.2547 h 0.076 L 140.434,94.343 V 71.4875 h 5.435 v 17.1543 h 9.609 V 64.5773 h 5.59 v 24.0645 h 11.575 v 1.2383 z m -2.098,1.4844 v 5.9257 H 139.5 l -5.208,-6.7597 c -2.162,0.5605 -4.08,1.5468 -5.546,3.0265 l -2.637,-0.9836 c 1.69,-1.6316 4.231,-2.7246 7.189,-3.3347 L 123.27,76.227 h -0.156 L 106.75,97.0648 125.271,120.59 V 97.7336 h 5.44 v 6.2784 c 2.871,-1.152 6.808,-1.89 10.811,-2.799 5.911,-1.2692 7.666,-3.5204 7.666,-5.6903 0,-1.6739 -1.2,-3.1454 -3.319,-4.1582"
       style="fill:#498f9a;fill-opacity:1;fill-rule:nonzero;stroke:none;stroke-width:0.1"
       id="path16" />
    <path
       d="m 38.5953,58.093 h 1.2977 l 3.441,-7.3942 3.4883,7.3942 h 1.1957 v -8.1481 h -0.8008 l 0.0316,7.4461 -3.4515,-7.4461 h -0.9368 l -3.5429,7.4461 0.0785,-7.4461 h -0.8008 v 8.1481"
       style="fill:#ffffff;fill-opacity:1;fill-rule:nonzero;stroke:none;stroke-width:0.1"
       id="path18" />
    <path
       d="m 51.1324,58.093 h 0.8117 v -8.1469 h -0.8117 v 8.1469"
       style="fill:#ffffff;fill-opacity:1;fill-rule:nonzero;stroke:none;stroke-width:0.1"
       id="path20" />
    <path
       d="m 55.048,58.093 h 1.0387 l 5.6981,-7.3121 v 7.3121 h 0.7898 v -8.1481 h -1.084 L 55.8379,57.257 V 49.9449 H 55.048 v 8.1481"
       style="fill:#ffffff;fill-opacity:1;fill-rule:nonzero;stroke:none;stroke-width:0.1"
       id="path22" />
    <path
       d="m 65.6895,58.093 h 0.8117 v -8.1469 h -0.8117 v 8.1469"
       style="fill:#ffffff;fill-opacity:1;fill-rule:nonzero;stroke:none;stroke-width:0.1"
       id="path24" />
    <path
       d="m 70.1238,52.6289 v -0.043 c 0,-1.2308 1.0055,-2.055 2.584,-2.055 1.5926,0 2.5277,0.6773 2.5277,1.6691 0,0.9281 -0.6542,1.1629 -2.0324,1.4121 l -1.7367,0.3039 c -1.298,0.2262 -1.9305,0.9031 -1.9305,2.0309 0,1.4 1.1512,2.357 3.1043,2.357 1.9871,0 3.159,-0.9457 3.2039,-2.5019 H 75.032 c -0.1019,1.139 -0.9136,1.7582 -2.3699,1.7582 -1.4449,0 -2.291,-0.6301 -2.291,-1.5692 0,-0.8551 0.6672,-1.1488 2.0312,-1.3851 l 1.5469,-0.2719 c 1.4781,-0.2602 2.143,-0.891 2.143,-2.1 0,-1.557 -1.2059,-2.5039 -3.3063,-2.5039 -2.1886,0 -3.4867,1.0828 -3.4867,2.7758 v 0.123 h 0.8246"
       style="fill:#ffffff;fill-opacity:1;fill-rule:nonzero;stroke:none;stroke-width:0.1"
       id="path26" />
    <path
       d="m 81.0574,57.3469 h -3.1488 v 0.7461 h 7.109 v -0.7461 h -3.1481 v -7.4008 h -0.8121 v 7.4008"
       style="fill:#ffffff;fill-opacity:1;fill-rule:nonzero;stroke:none;stroke-width:0.1"
       id="path28" />
    <path
       d="m 87.1273,58.093 h 6.2633 v -0.7578 h -5.4492 v -2.8563 h 5.032 v -0.766 h -5.032 v -3.0008 h 5.4492 v -0.7672 h -6.2633 v 8.1481"
       style="fill:#ffffff;fill-opacity:1;fill-rule:nonzero;stroke:none;stroke-width:0.1"
       id="path30" />
    <path
       d="m 96.009,58.093 h 3.9055 c 1.9395,0 2.9225,-0.7348 2.9225,-2.191 0,-1.0711 -0.429,-1.704 -1.411,-2.0309 0.926,-0.1473 1.14,-0.5762 1.253,-1.5473 0.124,-1.0816 0.056,-1.9058 0.395,-2.3789 h -0.949 c -0.248,0.7442 -0.18,1.5563 -0.282,2.3789 -0.101,0.8383 -0.576,1.1192 -1.591,1.1192 H 96.8227 V 49.9449 H 96.009 Z m 0.8137,-0.7578 V 54.209 h 3.0011 c 1.5012,0 2.1892,0.4191 2.1892,1.568 0,1.2089 -0.722,1.5582 -2.2911,1.5582 h -2.8992"
       style="fill:#ffffff;fill-opacity:1;fill-rule:nonzero;stroke:none;stroke-width:0.1"
       id="path32" />
    <path
       d="m 106.2,52.6289 v -0.043 c 0,-1.2308 1.003,-2.055 2.584,-2.055 1.589,0 2.527,0.6773 2.527,1.6691 0,0.9281 -0.654,1.1629 -2.032,1.4121 l -1.737,0.3039 c -1.298,0.2262 -1.93,0.9031 -1.93,2.0309 0,1.4 1.151,2.357 3.103,2.357 1.986,0 3.161,-0.9457 3.204,-2.5019 h -0.812 c -0.101,1.139 -0.913,1.7582 -2.369,1.7582 -1.445,0 -2.29,-0.6301 -2.29,-1.5692 0,-0.8551 0.666,-1.1488 2.03,-1.3851 l 1.547,-0.2719 c 1.477,-0.2602 2.143,-0.891 2.143,-2.1 0,-1.557 -1.206,-2.5039 -3.306,-2.5039 -2.189,0 -3.485,1.0828 -3.485,2.7758 v 0.123 h 0.823"
       style="fill:#ffffff;fill-opacity:1;fill-rule:nonzero;stroke:none;stroke-width:0.1"
       id="path34" />
    <path
       d="m 117.133,57.3469 h -3.149 v 0.7461 h 7.109 v -0.7461 h -3.148 v -7.4008 h -0.812 v 7.4008"
       style="fill:#ffffff;fill-opacity:1;fill-rule:nonzero;stroke:none;stroke-width:0.1"
       id="path36" />
    <path
       d="m 122.302,58.093 h 0.891 l 3.272,-7.4489 3.271,7.4489 h 0.894 l -3.657,-8.1481 h -1.027 l -3.644,8.1481"
       style="fill:#ffffff;fill-opacity:1;fill-rule:nonzero;stroke:none;stroke-width:0.1"
       id="path38" />
    <path
       d="m 136.441,49.7301 c -2.674,0 -4.276,1.6347 -4.276,4.2898 0,2.6492 1.602,4.2852 4.276,4.2852 2.675,0 4.288,-1.636 4.288,-4.2852 0,-2.6551 -1.613,-4.2898 -4.288,-4.2898 m 3.453,4.2898 c 0,2.186 -1.298,3.4973 -3.453,3.4973 -2.155,0 -3.453,-1.3113 -3.453,-3.4973 0,-2.1918 1.298,-3.5 3.453,-3.5 2.155,0 3.453,1.3082 3.453,3.5"
       style="fill:#ffffff;fill-opacity:1;fill-rule:nonzero;stroke:none;stroke-width:0.1"
       id="path40" />
    <path
       d="m 148.685,52.6289 v -0.043 c 0,-1.2308 1.003,-2.055 2.583,-2.055 1.592,0 2.527,0.6773 2.527,1.6691 0,0.9281 -0.654,1.1629 -2.029,1.4121 l -1.739,0.3039 c -1.297,0.2262 -1.928,0.9031 -1.928,2.0309 0,1.4 1.15,2.357 3.103,2.357 1.985,0 3.158,-0.9457 3.204,-2.5019 h -0.812 c -0.104,1.139 -0.915,1.7582 -2.371,1.7582 -1.444,0 -2.291,-0.6301 -2.291,-1.5692 0,-0.8551 0.666,-1.1488 2.032,-1.3851 l 1.546,-0.2719 c 1.479,-0.2602 2.144,-0.891 2.144,-2.1 0,-1.557 -1.207,-2.5039 -3.307,-2.5039 -2.19,0 -3.486,1.0828 -3.486,2.7758 v 0.123 z m 3.689,7.9563 h 0.87 l -1.57,-1.6704 h -0.924 l -1.569,1.6704 h 0.868 l 1.163,-1.2071 1.162,1.2071"
       style="fill:#ffffff;fill-opacity:1;fill-rule:nonzero;stroke:none;stroke-width:0.1"
       id="path42" />
    <path
       d="m 157.406,58.093 h 0.814 v -4.459 l 5.043,4.459 h 1.129 l -3.837,-3.4102 3.837,-4.7379 h -1.038 l -3.408,4.2082 -1.726,-1.5121 v -2.6961 h -0.814 v 8.1481"
       style="fill:#ffffff;fill-opacity:1;fill-rule:nonzero;stroke:none;stroke-width:0.1"
       id="path44" />
    <path
       d="m 170.045,49.7301 c -2.674,0 -4.275,1.6347 -4.275,4.2898 0,2.6492 1.601,4.2852 4.275,4.2852 2.676,0 4.288,-1.636 4.288,-4.2852 0,-2.6551 -1.612,-4.2898 -4.288,-4.2898 m 3.453,4.2898 c 0,2.186 -1.299,3.4973 -3.453,3.4973 -2.155,0 -3.452,-1.3113 -3.452,-3.4973 0,-2.1918 1.297,-3.5 3.452,-3.5 2.154,0 3.453,1.3082 3.453,3.5"
       style="fill:#ffffff;fill-opacity:1;fill-rule:nonzero;stroke:none;stroke-width:0.1"
       id="path46" />
    <path
       d="m 176.985,58.093 h 0.813 v -7.3809 h 5.124 v -0.7672 h -5.937 v 8.1481"
       style="fill:#ffffff;fill-opacity:1;fill-rule:nonzero;stroke:none;stroke-width:0.1"
       id="path48" />
    <path
       d="m 185.843,52.6289 v -0.043 c 0,-1.2308 1.006,-2.055 2.585,-2.055 1.591,0 2.528,0.6773 2.528,1.6691 0,0.9281 -0.654,1.1629 -2.032,1.4121 l -1.736,0.3039 c -1.299,0.2262 -1.931,0.9031 -1.931,2.0309 0,1.4 1.15,2.357 3.102,2.357 1.987,0 3.162,-0.9457 3.204,-2.5019 h -0.811 c -0.102,1.139 -0.914,1.7582 -2.37,1.7582 -1.444,0 -2.29,-0.6301 -2.29,-1.5692 0,-0.8551 0.665,-1.1488 2.031,-1.3851 l 1.546,-0.2719 c 1.478,-0.2602 2.144,-0.891 2.144,-2.1 0,-1.557 -1.207,-2.5039 -3.305,-2.5039 -2.191,0 -3.488,1.0828 -3.488,2.7758 v 0.123 h 0.823"
       style="fill:#ffffff;fill-opacity:1;fill-rule:nonzero;stroke:none;stroke-width:0.1"
       id="path50" />
    <path
       d="m 196.778,57.3469 h -3.148 v 0.7461 h 7.108 v -0.7461 h -3.147 v -7.4008 h -0.813 v 7.4008"
       style="fill:#ffffff;fill-opacity:1;fill-rule:nonzero;stroke:none;stroke-width:0.1"
       id="path52" />
    <path
       d="m 201.946,58.093 h 0.892 l 3.272,-7.4489 3.273,7.4489 h 0.89 l -3.657,-8.1481 h -1.026 l -3.644,8.1481"
       style="fill:#ffffff;fill-opacity:1;fill-rule:nonzero;stroke:none;stroke-width:0.1"
       id="path54" />
    <path
       d="m 212.474,58.093 h 0.812 v -8.1469 h -0.812 z m 1.061,2.4922 h 1.028 l -1.333,-1.6711 h -0.666 l 0.971,1.6711"
       style="fill:#ffffff;fill-opacity:1;fill-rule:nonzero;stroke:none;stroke-width:0.1"
       id="path56" />
    <path
       d="m 216.806,50.9391 h 0.915 V 49.616 c 0,-0.7898 -0.203,-1.1961 -0.915,-1.4332 v 0.5203 c 0.306,0.1578 0.407,0.384 0.407,0.7559 v 0.4871 h -0.407 v 0.993"
       style="fill:#ffffff;fill-opacity:1;fill-rule:nonzero;stroke:none;stroke-width:0.1"
       id="path58" />
    <path
       d="m 52.3855,45.4391 h 1.0758 l 2.8578,-6.1371 2.8942,6.1371 h 0.9933 v -6.7653 h -0.6671 l 0.0296,6.1832 -2.8664,-6.1832 h -0.7785 l -2.9406,6.1832 0.0648,-6.1832 h -0.6629 v 6.7653"
       style="fill:#ffffff;fill-opacity:1;fill-rule:nonzero;stroke:none;stroke-width:0.1"
       id="path60" />
    <path
       d="m 62.557,45.4391 h 0.675 v -6.127 h 4.252 v -0.6383 h -4.927 v 6.7653"
       style="fill:#ffffff;fill-opacity:1;fill-rule:nonzero;stroke:none;stroke-width:0.1"
       id="path62" />
    <path
       d="m 71.6895,45.4391 h 0.7777 l 3.082,-6.7653 h -0.684 l -0.9449,2.0903 h -3.7 l -0.957,-2.0903 h -0.6942 z m 1.9296,-4.02 -1.5449,3.4547 -1.5551,-3.4547 z m -1.0296,6.0887 h 0.8531 l -1.1051,-1.3867 h -0.5543 l 0.8063,1.3867"
       style="fill:#ffffff;fill-opacity:1;fill-rule:nonzero;stroke:none;stroke-width:0.1"
       id="path64" />
    <path
       d="m 82.4145,44.827 c 0.75,-0.579 1.0875,-1.4879 1.0875,-2.7711 0,-1.2829 -0.3375,-2.193 -1.0875,-2.775 -0.6926,-0.5321 -1.5629,-0.6071 -2.7727,-0.6071 h -2.4633 v 6.7653 h 2.4633 c 1.2098,0 2.0801,-0.0762 2.7727,-0.6121 m -4.5622,0 v -5.5059 h 1.7895 c 0.9672,0 1.668,0.0648 2.2199,0.4309 0.666,0.4402 0.9469,1.1992 0.9469,2.3511 0,1.1239 -0.2996,1.8739 -0.9469,2.3028 -0.5703,0.375 -1.3203,0.4211 -2.3699,0.4211 h -1.6395"
       style="fill:#ffffff;fill-opacity:1;fill-rule:nonzero;stroke:none;stroke-width:0.1"
       id="path66" />
    <path
       d="m 85.5156,45.4391 h 5.1985 v -0.6282 h -4.5243 v -2.3711 h 4.1778 V 41.802 h -4.1778 v -2.4899 h 4.5243 v -0.6383 h -5.1985 v 6.7653"
       style="fill:#ffffff;fill-opacity:1;fill-rule:nonzero;stroke:none;stroke-width:0.1"
       id="path68" />
    <path
       d="m 92.2031,39.3391 4.9742,5.4718 H 92.448 v 0.6282 h 5.6665 v -0.6282 l -5.0684,-5.4718 h 5.0684 v -0.6653 h -5.9114 z m 4.2989,8.1687 h 0.7222 l -1.3008,-1.3859 h -0.7691 l -1.3023,1.3859 h 0.7222 l 0.9649,-1.0027 0.9629,1.0027"
       style="fill:#ffffff;fill-opacity:1;fill-rule:nonzero;stroke:none;stroke-width:0.1"
       id="path70" />
    <path
       d="m 99.9688,45.4391 h 5.1982 v -0.6282 h -4.523 v -2.3711 h 4.177 V 41.802 h -4.177 v -2.4899 h 4.523 v -0.6383 h -5.1982 v 6.7653"
       style="fill:#ffffff;fill-opacity:1;fill-rule:nonzero;stroke:none;stroke-width:0.1"
       id="path72" />
    <path
       d="m 113.335,45.4391 h 0.777 l 3.082,-6.7653 h -0.683 l -0.945,2.0903 h -3.702 l -0.954,-2.0903 h -0.695 z m 1.93,-4.02 -1.545,3.4547 -1.555,-3.4547 z"
       style="fill:#ffffff;fill-opacity:1;fill-rule:nonzero;stroke:none;stroke-width:0.1"
       id="path74" />
    <path
       d="m 124.445,44.8199 h -2.614 v 0.6192 h 5.902 v -0.6192 h -2.614 v -6.1461 h -0.674 v 6.1461"
       style="fill:#ffffff;fill-opacity:1;fill-rule:nonzero;stroke:none;stroke-width:0.1"
       id="path76" />
    <path
       d="m 129.298,45.4391 h 5.199 v -0.6282 h -4.525 v -2.3711 h 4.176 V 41.802 h -4.176 v -2.4899 h 4.525 v -0.6383 h -5.199 z m 3.615,2.0687 h 0.723 l -1.303,-1.3867 h -0.768 l -1.302,1.3867 h 0.719 l 0.966,-1.0039 0.965,1.0039"
       style="fill:#ffffff;fill-opacity:1;fill-rule:nonzero;stroke:none;stroke-width:0.1"
       id="path78" />
    <path
       d="m 136.483,45.4391 h 0.674 v -6.127 h 4.251 v -0.6383 h -4.925 v 6.7653"
       style="fill:#ffffff;fill-opacity:1;fill-rule:nonzero;stroke:none;stroke-width:0.1"
       id="path80" />
    <path
       d="m 145.746,38.4961 c -2.221,0 -3.55,1.359 -3.55,3.559 0,2.2008 1.329,3.5597 3.55,3.5597 2.219,0 3.559,-1.3589 3.559,-3.5597 0,-2.2 -1.34,-3.559 -3.559,-3.559 m 2.866,3.559 c 0,1.8179 -1.077,2.9051 -2.866,2.9051 -1.789,0 -2.866,-1.0872 -2.866,-2.9051 0,-1.816 1.077,-2.9031 2.866,-2.9031 1.789,0 2.866,1.0871 2.866,2.9031"
       style="fill:#ffffff;fill-opacity:1;fill-rule:nonzero;stroke:none;stroke-width:0.1"
       id="path82" />
    <path
       d="m 150.393,45.4391 h 0.738 l 2.719,-6.1832 2.713,6.1832 h 0.743 l -3.035,-6.7653 h -0.854 l -3.024,6.7653"
       style="fill:#ffffff;fill-opacity:1;fill-rule:nonzero;stroke:none;stroke-width:0.1"
       id="path84" />
    <path
       d="m 161.127,41.5969 -2.914,3.8422 h 0.861 l 2.39,-3.2993 2.415,3.2993 h 0.836 l -2.913,-3.8422 v -2.9231 h -0.675 z m 0.983,5.9109 h 0.852 l -1.105,-1.3867 h -0.554 l 0.807,1.3867"
       style="fill:#ffffff;fill-opacity:1;fill-rule:nonzero;stroke:none;stroke-width:0.1"
       id="path86" />
    <path
       d="m 169.594,44.9602 c -1.772,0 -2.857,-1.0973 -2.857,-2.9043 0,-1.7887 1.085,-2.895 2.725,-2.895 1.36,0 2.397,0.7871 2.67,2.052 h 0.722 c -0.309,-1.6668 -1.602,-2.7168 -3.372,-2.7168 -2.072,0 -3.429,1.3859 -3.429,3.5598 0,2.2011 1.329,3.5582 3.551,3.5582 1.76,0 2.921,-0.9071 3.137,-2.3871 h -0.683 c -0.263,1.105 -1.143,1.7332 -2.464,1.7332"
       style="fill:#ffffff;fill-opacity:1;fill-rule:nonzero;stroke:none;stroke-width:0.1"
       id="path88" />
    <path
       d="m 174.718,45.4391 h 0.675 V 42.618 h 4.402 v 2.8211 h 0.674 v -6.7653 h -0.674 v 3.2981 h -4.402 v -3.2981 h -0.675 v 6.7653"
       style="fill:#ffffff;fill-opacity:1;fill-rule:nonzero;stroke:none;stroke-width:0.1"
       id="path90" />
    <path
       d="m 186.043,38.4961 c -2.222,0 -3.551,1.359 -3.551,3.559 0,2.2008 1.329,3.5597 3.551,3.5597 2.219,0 3.559,-1.3589 3.559,-3.5597 0,-2.2 -1.34,-3.559 -3.559,-3.559 m 2.866,3.559 c 0,1.8179 -1.076,2.9051 -2.866,2.9051 -1.789,0 -2.866,-1.0872 -2.866,-2.9051 0,-1.816 1.077,-2.9031 2.866,-2.9031 1.79,0 2.866,1.0871 2.866,2.9031"
       style="fill:#ffffff;fill-opacity:1;fill-rule:nonzero;stroke:none;stroke-width:0.1"
       id="path92" />
    <path
       d="m 190.688,45.4391 h 0.741 l 2.717,-6.1832 2.716,6.1832 h 0.74 l -3.036,-6.7653 h -0.852 l -3.026,6.7653"
       style="fill:#ffffff;fill-opacity:1;fill-rule:nonzero;stroke:none;stroke-width:0.1"
       id="path94" />
    <path
       d="m 201.424,41.5969 -2.914,3.8422 h 0.861 l 2.389,-3.2993 2.418,3.2993 h 0.834 l -2.914,-3.8422 v -2.9231 h -0.674 v 2.9231"
       style="fill:#ffffff;fill-opacity:1;fill-rule:nonzero;stroke:none;stroke-width:0.1"
       id="path96" />
  </g>
</svg>
