<?xml version="1.0" encoding="UTF-8" standalone="no"?>
<!-- Created with Inkscape (http://www.inkscape.org/) -->

<svg
   version="1.1"
   id="svg13502"
   width="643.40424"
   height="643.40424"
   viewBox="0 0 643.40424 643.40424"
   xmlns="http://www.w3.org/2000/svg"
   xmlns:svg="http://www.w3.org/2000/svg">
  <defs
     id="defs13506" />
  <g
     id="g13508">
    <path
       style="fill:#ffd800;stroke-width:1.02128;fill-opacity:1"
       d="m 286.30775,565.6916 c 2.3463,-8.57989 2.15705,-9.57796 -2.51589,-13.26837 l -4.41548,-3.48707 6.0165,-0.51064 6.0165,-0.51064 1.61446,-4.77884 c 0.88795,-2.62837 1.89653,-5.05512 2.2413,-5.39281 0.34476,-0.33767 1.49675,1.81281 2.55997,4.77885 l 1.93313,5.3928 6.12087,0.51064 6.12088,0.51064 -4.85106,3.36821 c -2.66809,1.85251 -4.85106,3.72384 -4.85106,4.15849 0,0.43466 0.74104,2.96515 1.64677,5.62332 0.90573,2.65815 1.44415,5.03564 1.1965,5.2833 -0.24766,0.24765 -2.25254,-0.9134 -4.45529,-2.58013 -4.85589,-3.67425 -5.05138,-3.68979 -9.01499,-0.717 -5.59886,4.19926 -6.11093,4.35387 -5.36311,1.61925 z m 46.21773,-2.61988 c 2.03069,-6.74749 1.95315,-7.00575 -3.31065,-11.02495 l -4.7426,-3.62125 h 5.63883 c 6.33179,0 7.14806,-0.62461 9.00894,-6.89362 0.70863,-2.38723 1.6025,-4.34042 1.98637,-4.34042 0.38388,0 1.27775,1.95319 1.98638,4.34042 1.86196,6.27265 2.67533,6.89362 9.02968,6.89362 h 5.65957 l -4.76334,3.71108 c -2.61984,2.04111 -4.76335,4.03615 -4.76335,4.43344 0,0.39729 0.67251,2.95692 1.49447,5.68807 0.82195,2.73115 1.33201,5.12816 1.13346,5.32672 -0.19856,0.19855 -2.47215,-1.12707 -5.05244,-2.94583 l -4.69144,-3.30682 -4.52388,3.24879 c -2.48812,1.78685 -4.74844,3.2488 -5.02292,3.2488 -0.27448,0 0.14534,-2.14112 0.93292,-4.75805 z m -87.40805,-6.22067 c 0.006,-0.42128 0.69626,-3.0247 1.53374,-5.78541 0.83748,-2.76069 1.40697,-5.08481 1.26555,-5.16471 -0.14143,-0.0799 -2.31236,-1.72752 -4.82428,-3.6614 l -4.56712,-3.51614 6.01953,-0.51064 6.01954,-0.51064 2.01119,-6.05036 2.01119,-6.05037 1.47185,4.00781 c 3.36488,9.16252 2.76649,8.60048 9.19607,8.63754 l 5.89424,0.034 -2.55319,2.08619 c -7.67711,6.2729 -7.23138,5.36774 -5.50539,11.17977 0.85758,2.8878 1.37703,5.43274 1.15434,5.65542 -0.2227,0.2227 -2.20715,-0.95878 -4.4099,-2.6255 -2.20275,-1.66673 -4.39845,-3.0432 -4.87932,-3.05883 -0.48087,-0.0157 -2.61509,1.35028 -4.74271,3.03539 -3.95073,3.12903 -5.1149,3.65404 -5.09533,2.29787 z M 372.0732,556.1914 c 0.30088,-0.78409 1.1234,-3.34926 1.82781,-5.70037 1.40271,-4.68185 1.98741,-3.79128 -7.20189,-10.9692 -1.30096,-1.0162 -0.43293,-1.25007 4.73805,-1.2766 l 6.33079,-0.0325 1.77486,-5.63051 c 0.97618,-3.09679 2.08817,-5.27976 2.47108,-4.85106 0.38293,0.42869 1.50846,2.96242 2.50118,5.63051 l 1.80497,4.85106 5.73358,0.0304 5.73359,0.0304 -4.52382,3.91019 -4.52383,3.9102 1.639,5.76146 c 0.90144,3.1688 1.40378,5.76146 1.1163,5.76146 -0.28746,0 -2.55099,-1.45663 -5.03005,-3.23696 l -4.50738,-3.23688 -4.50739,3.23696 c -4.94455,3.55091 -6.20767,3.97643 -5.37685,1.81135 z m -92.24342,-37.9416 c -3.65106,-1.85986 -11.14736,-4.87664 -16.65842,-6.70397 l -10.02012,-3.32241 -7.85222,2.34502 c -17.29474,5.16497 -19.80122,5.56662 -34.91605,5.59513 -12.70818,0.024 -15.93109,-0.31457 -22.7234,-2.38682 -4.35319,-1.3281 -7.91489,-2.80448 -7.91489,-3.28083 0,-1.86958 8.68891,-7.00464 17.14614,-10.13319 7.56461,-2.79836 10.65982,-3.36343 20.67601,-3.77469 10.46216,-0.42957 12.88577,-0.18231 21.67016,2.21082 13.42826,3.65827 28.3722,8.93546 41.14975,14.53134 9.58317,4.1969 10.53716,4.85277 9.60152,6.60101 -1.34398,2.51127 -2.20891,2.3681 -10.15848,-1.68141 z m 74.09623,1.86224 c -0.41059,-1.07 -0.0413,-2.22404 0.94175,-2.94284 3.23889,-2.36833 33.03155,-13.68846 45.29901,-17.21197 20.10287,-5.77403 36.18014,-4.87215 52.59745,2.95053 4.02648,1.91857 8.42994,4.3865 9.78547,5.48426 2.36053,1.91165 2.38209,2.03768 0.51064,2.98428 -6.56748,3.32194 -15.68229,4.78308 -30.03906,4.81541 -14.17242,0.0319 -15.41183,-0.13743 -28.85392,-3.94225 l -14.0454,-3.97559 -8.35314,2.75205 c -4.59424,1.51364 -12.23955,4.57329 -16.98959,6.79923 -4.75004,2.22596 -8.98322,4.04718 -9.40708,4.04718 -0.42385,0 -1.07461,-0.79213 -1.44613,-1.76029 z M 172.66139,494.12799 c -7.88986,-1.12723 -32.87016,-9.10971 -33.02609,-10.55353 -0.1865,-1.72665 6.39419,-5.52767 13.46727,-7.77875 9.69682,-3.08611 28.56017,-3.77546 39.98582,-1.46125 10.62221,2.15146 26.99671,8.6709 26.99671,10.74862 0,2.32598 -10.41375,7.04515 -19.23878,8.71837 -8.78117,1.66489 -18.06451,1.77245 -28.18493,0.32654 z m 269.04073,-0.3259 c -6.58028,-1.45472 -14.06134,-4.53982 -17.35673,-7.15771 -2.37683,-1.88816 -1.89579,-2.38403 5.61205,-5.78502 11.41319,-5.17007 19.6786,-7.11546 32.74094,-7.70606 14.19736,-0.64192 23.82426,0.56846 32.08243,4.03369 6.5616,2.75335 11.147,5.90507 10.06381,6.91726 -1.83827,1.71781 -26.84453,9.0772 -34.36534,10.1138 -10.38543,1.43142 -21.12282,1.27622 -28.77716,-0.41596 z M 301.78723,493.3196 c -39.78553,-3.61998 -65.29989,-17.14084 -76.20502,-40.38344 -6.95624,-14.82616 -6.51839,-3.71288 -6.51839,-165.44681 0,-137.83221 0.10487,-146.48963 1.86527,-153.9951 5.50265,-23.46038 21.35288,-40.695471 45.6241,-49.610336 26.33697,-9.673622 69.95068,-11.067126 101.13233,-3.231285 4.76019,1.196221 13.40023,4.474487 19.20009,7.285033 14.12188,6.843309 23.46778,15.828128 29.63271,28.487868 7.2138,14.8136 7.61357,17.30192 8.08086,50.29787 l 0.41581,29.3617 h -43.48622 -43.48622 v -19.83136 c 0,-10.90726 -0.27539,-20.54902 -0.61197,-21.42615 -2.95818,-7.70889 -25.95424,-8.2236 -29.99606,-0.6714 -1.11419,2.0819 -1.54667,67.64656 -0.45342,68.73981 0.32898,0.32898 2.51195,-0.7469 4.85107,-2.39082 6.83198,-4.8015 16.33094,-6.33287 39.99761,-6.4482 24.36618,-0.11874 31.86791,1.21939 46.23066,8.24647 11.20305,5.48116 20.50534,13.94217 24.30817,22.10978 l 2.46249,5.28889 0.0102,89.9643 c 0.009,85.62533 -0.0853,90.33686 -1.96574,97.6893 -4.53307,17.72411 -13.61303,29.42966 -31.16931,40.18235 -9.71696,5.95134 -26.01568,11.73131 -39.87625,14.14121 -11.09438,1.92894 -37.39535,2.79105 -50.04255,1.64032 z m -0.0881,-40.75144 c 0.29867,-0.48326 2.69219,-1.17322 5.31894,-1.53325 2.62676,-0.36004 5.39674,-1.16986 6.15554,-1.7996 1.10313,-0.91551 1.38243,-7.41394 1.39357,-32.42419 0.008,-17.20357 0.28297,-32.28229 0.61176,-33.50826 0.9073,-3.38304 7.50405,-7.3752 14.2623,-8.63112 11.52519,-2.14179 10.6439,-0.56141 10.6439,-19.08731 0,-14.14628 0.22737,-16.4098 1.79039,-17.82432 1.0869,-0.98363 9.35126,-3.05225 21.03294,-5.26467 10.5834,-2.00441 19.42879,-3.64438 19.65642,-3.64438 0.22762,0 0.41315,-6.08937 0.41228,-13.53192 -0.002,-14.9244 -1.06918,-18.6998 -6.39015,-22.60142 -2.56243,-1.87893 -3.39379,-1.96521 -9.19149,-0.954 -3.50581,0.61147 -12.80826,3.50524 -20.67209,6.43058 -21.41265,7.96552 -27.56343,7.93953 -31.73848,-0.13413 l -1.65333,-3.19718 -8.81625,0.67767 c -12.81077,0.98472 -16.50931,2.18606 -17.87581,5.80634 -0.62145,1.64637 -1.7185,2.99342 -2.43791,2.99342 -1.81249,0 -1.64528,4.57638 0.22391,6.12766 1.33172,1.10523 1.53191,9.59174 1.53191,64.94146 0,56.99422 -0.17624,64.03966 -1.68084,67.19484 l -1.68083,3.52476 3.9787,3.65395 c 3.49372,3.20855 4.62495,3.65455 9.28014,3.65883 2.91579,0.003 5.5458,-0.39051 5.84446,-0.87376 z m 15.43934,-84.51182 c -1.28553,-1.28553 -1.58092,-3.34531 -1.34954,-9.41021 0.29019,-7.60626 0.36906,-7.8136 3.8707,-10.17643 3.60931,-2.43549 8.12839,-2.67044 14.04255,-0.73007 3.37098,1.10598 2.93634,-1.28153 -0.9663,-5.30804 -2.91273,-3.00516 -3.03974,-3.36777 -1.17958,-3.36777 4.48927,0 5.46501,2.84976 5.46501,15.96127 0,8.14738 -0.40884,12.6348 -1.22553,13.4515 -1.94393,1.94393 -16.62381,1.61327 -18.65733,-0.42025 z m -168.03205,98.27979 c -20.99048,-5.6394 -42.37912,-17.23746 -46.50605,-25.21805 -1.93216,-3.73639 -1.05557,-4.01171 12.7732,-4.01171 12.59711,0 22.69139,2.40948 35.7754,8.5395 14.30547,6.70229 27.57447,17.09205 27.57447,21.5911 0,2.56533 -18.84957,1.99198 -29.61702,-0.90084 z m 315.57828,1.66386 c 0.002,-0.42128 0.91006,-2.25229 2.01769,-4.06892 4.70105,-7.71018 27.34943,-20.58516 43.55103,-24.75756 9.84094,-2.53434 30.9987,-2.66726 31.81773,-0.1999 0.67651,2.03809 -8.82562,10.66047 -16.44226,14.91993 -16.87418,9.43658 -35.61888,14.87241 -51.28544,14.87241 -5.31441,0 -9.66085,-0.34468 -9.65875,-0.76596 z m -274.83157,-3.31124 c -11.12401,-5.87936 -22.25886,-24.96088 -27.96978,-47.93117 -3.33828,-13.4271 -4.25102,-21.52337 -2.42652,-21.52413 2.58075,-0.001 18.6585,17.79897 23.56425,26.08851 6.55634,11.07862 11.01368,24.85028 11.75712,36.32557 0.33239,5.13042 0.18932,9.05624 -0.32912,9.03072 -0.50442,-0.0248 -2.5726,-0.9201 -4.59595,-1.9895 z M 448.8555,458.8085 c 0.37913,-4.35319 1.33825,-10.81897 2.13134,-14.36839 3.21389,-14.38345 14.02704,-32.3331 26.37534,-43.78269 6.69226,-6.20518 7.26029,-6.52673 7.59087,-4.29701 0.19652,1.32553 -0.19827,5.86544 -0.87733,10.08865 -3.95773,24.61424 -15.96841,48.97873 -28.10843,57.01994 -7.47384,4.95047 -7.92322,4.65597 -7.11179,-4.6605 z M 151.41911,439.61709 c -20.01759,-5.39098 -45.51504,-28.58702 -50.1141,-45.59078 -0.55948,-2.0685 -0.83257,-3.94557 -0.60689,-4.17125 0.22569,-0.22569 3.21746,-0.0264 6.64836,0.44276 18.02501,2.46507 34.88152,17.5658 51.39603,46.0426 l 2.81327,4.85106 -2.39491,-0.0672 c -1.3172,-0.037 -4.80099,-0.7152 -7.74176,-1.50718 z m 331.64471,0.84665 c 0,-1.7849 9.84612,-17.41638 15.10896,-23.98667 13.03366,-16.27162 25.68114,-24.64469 40.34866,-26.71223 5.35274,-0.75453 5.68267,0.92563 1.80779,9.20606 -7.40776,15.83003 -26.06227,32.55291 -43.65604,39.13559 -6.72075,2.51454 -13.60937,3.70771 -13.60937,2.35725 z M 146.19845,404.1702 c -4.59464,-5.96187 -8.97297,-15.43425 -11.0227,-23.84726 -2.47398,-10.15433 -2.30375,-31.49003 0.31693,-39.72092 2.67369,-8.3974 4.29269,-8.35307 8.80885,0.24118 7.63239,14.52446 12.08932,37.8472 10.01246,52.3943 -1.26987,8.89463 -2.94697,15.27313 -4.01578,15.27313 -0.4151,0 -2.25999,-1.95319 -4.09976,-4.34043 z m 346.09503,1.88764 c -2.79049,-7.33955 -3.36445,-12.51193 -2.82503,-25.45835 0.64058,-15.37439 3.35498,-26.37064 9.65436,-39.11051 4.4925,-9.08565 6.09089,-9.33642 8.92174,-1.39977 1.65757,4.64721 1.99638,8.24856 1.96931,20.93206 -0.0294,13.76808 -0.30599,16.14638 -2.73178,23.48936 -2.69845,8.16842 -8.32165,18.68278 -11.97736,22.39551 -1.91364,1.94349 -1.95414,1.93207 -3.01124,-0.8483 z M 108.49071,381.93824 C 95.506699,377.324 82.199121,369.00565 73.952128,360.34873 66.508359,352.53496 61.014912,345.41985 61.642186,344.40489 c 0.77259,-1.25007 11.411927,-0.40168 18.017387,1.43674 7.804266,2.17206 22.345587,9.99936 28.374837,15.2736 2.77259,2.42538 7.88816,8.56666 11.36794,13.64727 l 6.32688,9.23749 -5.92845,-0.0747 c -3.26064,-0.0411 -8.35017,-0.93525 -11.31007,-1.98713 z m 411.55811,-1.2574 c 1.37721,-1.82553 4.83676,-6.5429 7.6879,-10.48304 10.64454,-14.71029 31.91789,-25.98318 49.09437,-26.01547 l 6.44813,-0.0121 -6.3462,8.20353 c -6.57133,8.49458 -12.43416,13.93893 -20.33729,18.8856 -13.80201,8.63889 -24.58112,12.74066 -33.48137,12.74066 h -5.56957 z M 118.76796,361.28235 c -4.5078,-9.10625 -6.40697,-16.2897 -7.08918,-26.81427 -0.94433,-14.5684 3.46143,-35.17505 8.88888,-41.57515 1.89609,-2.23587 2.04804,-2.25743 3.42292,-0.48565 2.3364,3.01088 5.75197,17.33101 6.63777,27.82966 1.44051,17.0729 -1.48928,35.92127 -6.93571,44.61988 l -1.76209,2.81428 z m 399.43818,-0.17449 c -7.26601,-15.87104 -7.39492,-45.54753 -0.28046,-64.56263 1.12797,-3.01478 2.44457,-5.48141 2.9258,-5.48141 3.01674,0 6.98678,8.97067 9.62712,21.75337 2.0305,9.83025 2.03789,24.79282 0.0165,33.39557 -1.72637,7.34721 -7.38045,20.42553 -8.83046,20.42553 -0.50963,0 -2.06595,-2.48869 -3.4585,-5.53043 z m -417.6104,-9.97908 c -13.300995,-7.48565 -29.463829,-33.43333 -33.690859,-54.08704 -0.845338,-4.13041 -1.776916,-8.54387 -2.070174,-9.8077 -0.813908,-3.50763 1.55675,-2.87804 8.551196,2.27098 13.898474,10.23147 26.582533,31.22146 28.713637,47.51625 0.62443,4.77447 1.39692,10.17447 1.71665,12 0.62046,3.54253 0.0235,3.93318 -3.22045,2.10751 z m 438.65688,0.44568 c 0.0102,-0.42128 0.89074,-6.14581 1.95672,-12.72117 1.5594,-9.6189 2.76609,-13.60937 6.1748,-20.41978 4.8255,-9.64106 10.63233,-17.71662 17.34925,-24.12762 4.81705,-4.59768 13.0335,-9.98581 13.90243,-9.11687 0.64619,0.64619 -2.25391,15.08417 -4.35972,21.70459 -5.05371,15.8883 -19.81159,37.23361 -29.93569,43.29803 -3.78843,2.26931 -5.11807,2.6307 -5.08779,1.38282 z M 99.274919,305.3694 c -8.621853,-3.91307 -22.051203,-19.26587 -29.118733,-33.28933 -2.563526,-5.08658 -5.904143,-14.36766 -7.271899,-20.20318 -0.683767,-2.91729 -0.668158,-2.9281 3.193016,-2.21212 14.217494,2.63639 28.854707,19.71395 35.920867,41.90969 3.81386,11.97982 4.5244,15.83625 2.91247,15.80736 -0.68809,-0.0124 -3.22416,-0.91792 -5.635721,-2.01242 z m 438.937831,-0.11561 c 0,-3.48329 2.90668,-13.6878 5.85804,-20.56588 7.04093,-16.40875 16.08266,-27.27345 26.99244,-32.43463 10.69577,-5.05992 11.53039,-4.38373 7.9207,6.41723 -6.57418,19.67133 -21.33451,39.95387 -33.59842,46.16848 -6.16171,3.12237 -7.17276,3.18084 -7.17276,0.4148 z M 107.65273,289.40098 c -3.21905,-17.15905 9.05055,-47.5057 23.73158,-58.69583 4.59005,-3.49861 5.91647,-3.15593 6.32982,1.63527 1.50376,17.43023 -14.38167,53.02171 -26.45055,59.26277 -2.914,1.50689 -2.91514,1.50619 -3.61085,-2.20221 z m 422.6468,0.71033 c -5.32703,-3.85888 -13.71341,-16.66257 -17.75532,-27.10745 -5.29007,-13.67031 -8.60876,-33.1307 -5.93208,-34.78498 1.81441,-1.12137 8.68076,4.19992 13.48879,10.45356 5.02738,6.53891 10.17629,16.18467 13.24485,24.81234 2.24272,6.30571 3.89298,29.6216 2.09658,29.6216 -0.55454,0 -2.8688,-1.34778 -5.14282,-2.99507 z M 98.106886,260.98807 C 91.195855,255.88054 82.536317,243.4732 79.115318,233.77706 77.597465,229.475 74.578254,209.73291 74.561431,204 c -0.01288,-4.38782 2.239205,-3.43088 9.043147,3.84256 11.214006,11.9878 18.918652,32.15066 18.312692,47.92388 l -0.30025,7.81575 z m 443.466064,-6.75732 c 1.1842,-18.43489 7.97977,-35.44363 18.61633,-46.59501 3.3807,-3.54434 6.71261,-6.44426 7.40425,-6.44426 1.64439,0 1.57838,5.79912 -0.21886,19.2311 -1.12779,8.42877 -2.22774,12.22795 -5.4701,18.89362 -4.65785,9.57561 -12.40383,19.55953 -17.47012,22.5175 l -3.48043,2.03206 z M 102.17923,225.59222 c -8.204256,-13.29584 -10.918546,-26.83199 -9.1646,-45.7038 0.983798,-10.58531 3.633772,-22.0062 5.927539,-25.54657 0.684361,-1.05629 1.555241,-0.29946 3.525451,3.06383 4.10926,7.01474 5.42193,10.8881 7.33447,21.64223 3.04389,17.1156 0.81168,43.47744 -4.11412,48.58687 -1.1627,1.20604 -1.69559,0.89583 -3.50874,-2.04256 z m 10.16119,2.82297 c 0,-0.19291 0.8915,-2.94192 1.9811,-6.10888 5.67436,-16.49286 17.67565,-32.72606 29.48524,-39.8824 5.64636,-3.42156 18.36458,-8.33768 19.25817,-7.44408 0.85225,0.85224 -3.37268,11.71095 -6.86386,17.64115 -4.37637,7.43381 -21.02666,24.44677 -28.5415,29.16318 -6.45262,4.04975 -15.31915,7.88771 -15.31915,6.63103 z m 411.70021,-2.26064 c -7.49812,-3.40511 -18.20783,-11.51769 -25.26599,-19.13893 -9.61868,-10.38602 -17.75337,-24.3192 -17.75337,-30.40813 0,-1.76388 0.27463,-1.77763 5.3617,-0.26834 19.36776,5.74623 34.83177,22.07717 42.77957,45.17785 2.91091,8.46073 3.03982,8.34402 -5.12191,4.63755 z m 13.29544,0.82417 c -7.428,-13.99569 -6.31829,-50.0421 2.02164,-65.66836 1.89793,-3.55611 3.97474,-6.62929 4.61513,-6.82931 2.65017,-0.82774 7.49912,21.75121 7.50909,34.96575 0.008,11.20663 -2.6138,22.41629 -7.30218,31.21543 -2.37482,4.45705 -4.67273,8.10372 -5.10649,8.10372 -0.43376,0 -1.21549,-0.80425 -1.73719,-1.78723 z M 118.04134,184.0851 c -1.17442,-15.2056 2.07168,-34.36014 7.69701,-45.41841 2.09012,-4.10876 7.76486,-11.00712 9.05472,-11.00712 3.52089,0 4.2043,28.15146 0.967,39.83363 -3.6302,13.10001 -11.30573,25.52807 -15.76607,25.52807 -0.85365,0 -1.48596,-2.89368 -1.95266,-8.93617 z m 401.05532,5.61702 c -7.94234,-8.2994 -13.52347,-25.57147 -13.54908,-41.93073 -0.0156,-9.95367 1.40159,-18.58355 3.23812,-19.71859 2.74006,-1.69345 10.5878,11.75365 14.08467,24.13409 3.63637,12.87435 4.08878,40.83438 0.66073,40.83438 -0.69195,0 -2.68745,-1.49361 -4.43444,-3.31915 z M 498.89361,165.732 c -2.91077,-1.47128 -8.85392,-6.36895 -13.82205,-11.39058 -6.86573,-6.93964 -9.62225,-10.65207 -12.98679,-17.49036 -4.87047,-9.89901 -7.36695,-19.30897 -7.38884,-27.85054 l -0.0151,-5.8931 4.34043,2.20901 c 10.12368,5.15233 22.87537,22.0031 29.27349,38.68357 2.82116,7.35502 6.84368,23.21669 6.07538,23.95659 -0.20358,0.19607 -2.66802,-0.805 -5.47653,-2.22459 z m -358.97872,-0.56365 c 0,-5.3226 4.37001,-19.12544 9.17139,-28.96814 7.216,-14.79263 17.262,-26.66976 26.7157,-31.58534 2.52012,-1.31038 2.72525,-1.2465 3.15107,0.98103 0.8521,4.45743 -1.30908,17.20823 -4.16194,24.55527 -6.1519,15.84308 -21.59746,33.26511 -32.57835,36.74717 -1.94843,0.61786 -2.29787,0.35477 -2.29787,-1.72999 z"
       id="path13629" />
  </g>
</svg>
