<?xml version="1.0" encoding="UTF-8" standalone="no"?>
<!-- Created with Inkscape (http://www.inkscape.org/) -->

<svg
   version="1.1"
   id="svg2"
   width="579.20001"
   height="1187.2"
   viewBox="0 0 579.20001 1187.2"
   xmlns="http://www.w3.org/2000/svg"
   xmlns:svg="http://www.w3.org/2000/svg">
  <defs
     id="defs6" />
  <g
     id="g8">
    <path
       style="fill:#000000;stroke-width:0.64"
       d="m 257.28,1186.7626 c -10.07481,-0.5741 -27.84058,-2.3486 -37.76,-3.7715 C 110.58663,1167.3652 31.317603,1114.5194 7.7976123,1041.8433 2.0893796,1024.2049 0.58562778,1013.748 0.18039355,988.87405 -0.20439189,965.25523 0.79518485,859.30234 2.6264271,729.6 3.7732195,648.37555 3.9219874,610.61692 3.8487638,419.36 3.7902657,266.56522 3.9674562,201.6 4.4426968,201.6 c 0.3955619,0 0.6856074,-1.53079 0.6972662,-3.68 0.062484,-11.51832 3.2167623,-26.5276 8.008255,-38.10638 1.632709,-3.94549 4.647622,-11.54164 6.699807,-16.88033 C 32.279826,110.59235 45.811051,89.019648 65.830843,69.623309 97.285218,39.148481 140.78937,20.589972 201.30996,11.829052 207.62949,10.914242 215.248,9.4679155 218.24,8.6149926 c 27.31341,-7.78617052 61.15355,-10.2435292 96.96001,-7.0409131 5.632,0.5037397 15.568,1.2294648 22.08,1.6127222 81.85699,4.8176149 141.62795,27.4205453 181.49315,68.6332813 21.44453,22.169389 35.63281,46.073397 48.92058,82.419917 6.15565,16.83775 8.68001,26.59423 10.50821,40.61341 0.85178,6.53174 0.99806,17.99858 0.99806,78.24 V 343.68 h -122.88 -122.88 v -54.4 c 0,-41.88444 -0.1767,-54.4 -0.768,-54.4 -0.59734,0 -0.59734,-0.17067 0,-0.768 0.46231,-0.46232 0.768,-2.69997 0.768,-5.62186 v -4.85386 l -3.36,-3.27477 c -1.848,-1.80113 -5.02512,-4.32597 -7.06027,-5.61077 -4.28748,-2.70671 -13.16388,-6.24726 -18.69973,-7.45882 -5.53425,-1.21119 -18.8358,-1.06315 -24.21051,0.26946 -10.0181,2.48389 -19.24736,7.60985 -26.5095,14.72346 l -4,3.91818 v 98.41849 c 0,78.31335 0.16343,98.41649 0.8,98.40869 1.179,-0.0145 1.87911,-0.6401 4.28601,-3.8302 10.8024,-14.31747 26.38474,-21.08445 56.72352,-24.63345 18.95328,-2.21713 77.41449,-2.77831 101.07048,-0.97018 47.55755,3.63502 80.64111,12.92191 107.0647,30.05416 23.40392,15.17439 42.23851,38.0423 54.95106,66.71854 l 2.92185,6.59093 -0.74622,128 c -0.41042,70.4 -1.00844,163.856 -1.32894,207.68 -0.3205,43.824 -0.59167,99.59539 -0.60259,123.93638 -0.0183,40.86567 -0.11521,44.81292 -1.26446,51.52002 -2.32908,13.5928 -8.46678,34.9259 -14.21684,49.4141 -3.11349,7.845 -4.47294,10.523 -6.39275,12.5934 -0.8282,0.8932 -3.07901,3.6292 -5.0018,6.08 -23.96488,30.5463 -54.39851,54.5045 -93.14401,73.3257 -43.88611,21.3184 -93.0931,33.5961 -148.48,37.0477 -9.25397,0.5767 -40.16858,0.7063 -48.96001,0.2053 z m -24.62423,-121.4216 0.91044,-2.179 6.2569,-0.3982 c 12.39956,-0.789 15.57517,-1.8807 24.0528,-8.2688 l 5.11244,-3.8524 -0.25418,-89.99262 -0.25417,-89.99264 2.36162,-4.7687 c 4.01396,-8.10509 11.4345,-14.28787 21.1289,-17.60448 5.24423,-1.79411 11.32533,-3.01709 23.82238,-4.79078 14.77096,-2.09639 19.36186,-4.33408 21.13385,-10.30106 1.91708,-6.45549 2.45246,-16.2409 2.09953,-38.37434 -0.59518,-37.32582 1.23472,-52.12972 7.14345,-57.79065 1.66183,-1.59213 3.38123,-1.94215 31.79355,-6.47219 56.17554,-8.95668 73.20771,-11.85613 77.97723,-13.27444 l 2.5005,-0.74355 -0.44909,-35.73561 c -0.44805,-35.65216 -0.45287,-35.74874 -2.06179,-41.30862 -2.37044,-8.19147 -5.11861,-13.30758 -9.53012,-17.74167 -6.29746,-6.32968 -12.64149,-8.63125 -23.79109,-8.63125 -11.98281,0 -27.36185,4.24341 -55.56891,15.33267 -41.59481,16.35251 -50.24246,18.89235 -66.88,19.6432 -10.11185,0.45639 -16.59553,-0.36313 -21.15567,-2.67392 -3.80759,-1.92947 -4.2441,-2.58381 -7.67342,-11.50195 -1.48892,-3.872 -2.96801,-7.37262 -3.28688,-7.77916 -1.90692,-2.43115 -25.02486,-2.87554 -44.36005,-0.85271 -15.42703,1.61396 -20.89577,3.07232 -27.09231,7.22475 -4.24039,2.84157 -5.22646,4.93918 -5.22928,11.12398 -0.003,5.73082 0.18976,5.46477 -4.55879,6.30458 l -2.31639,0.40966 -0.45326,6.17479 c -0.50144,6.8311 -0.90031,5.88217 4.21775,10.03411 l 1.57785,1.28 -0.57633,182.08 -0.57633,182.08 -2.90318,6.4 c -3.5643,7.8574 -4.65372,10.889 -4.65372,12.9498 0,1.423 0.18381,1.5388 1.76,1.1093 4.21768,-1.1495 4.30288,-1.0691 4.50531,4.251 l 0.1853,4.8701 5.25068,0.4378 c 2.88787,0.2409 5.49517,0.6825 5.79399,0.9813 0.29882,0.2988 0.2153,1.1562 -0.18558,1.9052 -0.40089,0.7491 -0.55457,1.644 -0.34152,1.9887 0.23672,0.383 6.85672,0.6268 17.02225,0.6268 h 16.63489 z m 43.84045,-233.51265 c -1.94701,-1.02957 -3.28807,-2.36454 -4.30246,-4.28275 -1.45975,-2.76045 -1.47376,-3.00672 -1.47376,-25.9193 v -23.13235 l 3.9012,-3.94982 c 6.49324,-6.57427 13.21121,-9.0841 24.3481,-9.09651 7.39795,-0.008 14.05129,1.04025 22.33577,3.51987 2.9211,0.87437 5.44538,1.45542 5.60951,1.29126 0.67507,-0.67507 -3.53429,-7.66861 -6.76333,-11.23686 -1.90539,-2.10547 -6.03091,-5.73191 -9.1678,-8.05869 -3.13689,-2.32672 -5.70344,-4.62931 -5.70344,-5.1168 0,-0.70541 1.5505,-0.8864 7.592,-0.8864 8.547,0 8.98917,0.19456 14.5444,6.4 5.99318,6.69466 5.3836,2.15277 5.3836,40.11181 0,32.14816 -0.0525,33.64205 -1.26551,36.01977 -0.69604,1.36436 -2.20804,3.1529 -3.36,3.97453 -2.0903,1.49088 -2.14125,1.49427 -25.47203,1.67597 l -23.37754,0.18214 z"
       id="path343" />
  </g>
</svg>
